<svg width="124" height="128" viewBox="0 0 124 128" fill="none" xmlns="http://www.w3.org/2000/svg">
<path d="M112.643 65.2609L98.6661 26.8602C97.1231 22.6208 92.6393 20.3562 88.4097 21.8957C85.7882 22.8498 81.306 26.2207 83.5423 32.3649L77.9516 17.0046M77.9516 17.0046C76.4085 12.7651 71.9248 10.5006 67.6951 12.04C65.1392 12.9703 60.5914 16.3651 62.8277 22.5092M77.9516 17.0046L88.2012 45.1651M62.8277 22.5092L59.1006 12.269C57.5575 8.02957 53.0738 5.76502 48.8441 7.30448C44.6094 8.84578 42.4337 13.5342 43.9767 17.7736L47.7038 28.0138M62.8277 22.5092L73.0773 50.6697M47.7038 28.0138C45.4675 21.8697 39.9025 22.1557 37.3465 23.086C33.1118 24.6273 31.0723 29.3763 32.6172 33.6209L48.4202 77.0393M47.7038 28.0138L57.9534 56.1744" stroke="#EFEFD0" stroke-width="3.16667" stroke-linecap="round" stroke-linejoin="round"/>
<path d="M112.643 65.2611C120.097 85.7415 108.025 101.732 88.5352 108.826C69.0456 115.92 60.4771 113.24 36.0354 93.144L23.2609 82.6887C18.9412 79.228 19.0056 72.6756 23.39 69.2243C24.822 68.0911 26.5681 67.4345 28.3916 67.3433C30.215 67.2522 32.0277 67.731 33.5838 68.7148L48.4817 77.2085" stroke="#EFEFD0" stroke-width="3.16667" stroke-linecap="round" stroke-linejoin="round"/>
</svg>
