<svg width="221" height="87" viewBox="0 0 221 87" fill="none" xmlns="http://www.w3.org/2000/svg">
<mask id="path-1-outside-1_5_201" maskUnits="userSpaceOnUse" x="-1.37852" y="-0.878374" width="223.891" height="90.0501" fill="black">
<rect fill="white" x="-1.37852" y="-0.878374" width="223.891" height="90.0501"/>
<path d="M26.186 70.2546C26.9028 69.9893 27.2077 69.5538 27.1009 68.9479C26.9901 68.3196 26.6655 67.6595 26.127 66.9678C25.6071 66.2496 24.9043 65.61 24.0186 65.0489C21.7049 63.6058 18.8426 63.185 15.4317 63.7865C13.7486 64.0832 12.2273 64.6407 10.8676 65.4589C9.18071 64.9465 7.72689 63.9187 6.50612 62.3755C5.28535 60.8322 4.50086 59.0733 4.15266 57.0985C3.24259 51.9372 4.69452 47.5742 8.50845 44.0095C11.7877 40.9555 16.1426 38.9497 21.5732 37.9922C25.6124 37.28 29.0893 37.1181 32.0038 37.5066C34.9143 37.8726 37.3634 38.5745 39.3512 39.6123C40.1284 41.0024 40.6575 42.494 40.9385 44.0873C41.2194 45.6805 41.2614 47.1655 41.0646 48.5422C40.8677 49.9189 40.4346 51.0712 39.7652 51.9991C38.9033 51.5726 37.4224 51.2437 35.3223 51.0124C33.2222 50.7812 31.3531 50.8099 29.715 51.0988C28.0768 51.3876 26.9951 51.6825 26.4697 51.9834C25.9667 52.2803 25.7528 52.6419 25.828 53.0683C25.8636 53.2703 25.9309 53.4551 26.0299 53.6227C26.7797 53.2823 27.7717 53.0032 29.0059 52.7856C33.3818 52.014 37.1318 52.4172 40.256 53.995C43.9451 55.8897 46.2249 59.3054 47.0954 64.2423C47.863 68.5957 46.7385 72.5192 43.7218 76.0128C40.4491 79.7598 35.5925 82.2011 29.1521 83.3367C25.6066 83.9619 22.4848 84.2347 19.7867 84.1551C17.0927 84.0979 14.3947 83.625 11.6928 82.7363C9.57849 80.5871 8.29975 78.2558 7.85658 75.7425C7.40946 73.2067 7.90345 70.9562 9.33854 68.991C10.7736 67.0257 12.7478 65.8215 15.2612 65.3783C17.7969 64.9312 19.9524 65.0833 21.7277 65.8346C23.5254 66.582 25.0115 68.0553 26.186 70.2546ZM102.726 52.2118C103.015 53.8499 103.43 55.1535 103.971 56.1224C104.512 57.0914 105.281 57.7772 106.278 58.1799C106.32 58.2882 106.365 58.4769 106.412 58.7462L106.501 59.2511C107.043 62.3255 106.569 64.8848 105.079 66.9293C103.588 68.9737 101.418 70.2472 98.5679 70.7497C95.7404 71.2483 93.3262 70.8757 91.3253 69.632C88.9667 68.1969 87.4609 65.628 86.8081 61.9253L84.9325 51.2886C84.6674 49.7851 84.0412 49.1204 83.0538 49.2945C82.6723 49.3618 82.3852 49.505 82.1925 49.7241L83.6827 54.6326L85.0241 62.2399C85.5622 65.2918 86.4747 67.5141 87.7614 68.9068C86.8861 70.2412 85.698 71.3763 84.197 72.3119C82.7145 73.2212 81.143 73.8222 79.4824 74.115C76.7896 74.5898 74.5879 74.307 72.8774 73.2667C70.8052 72.0124 69.4703 69.691 68.8728 66.3025L66.7896 54.4877C66.5245 52.9842 65.8982 52.3195 64.9109 52.4936C64.5294 52.5609 64.2422 52.7041 64.0495 52.9232L65.5397 57.8317L67.1126 66.7517C67.5557 69.2651 68.2346 71.1468 69.1492 72.3969C67.3497 75.0512 64.464 76.7285 60.492 77.4288C58.1358 77.8443 56.045 77.5998 54.2196 76.6954C52.1157 75.6549 50.8599 73.979 50.4524 71.6677L47.6153 55.578C45.9629 53.9489 44.8974 51.7767 44.4186 49.0615C43.9358 46.3237 44.1804 43.8396 45.1522 41.6089L53.2644 40.1785C54.8576 39.8976 56.3201 40.2529 57.6518 41.2444C56.8267 42.3385 56.4675 43.1885 56.5744 43.7944C56.697 44.4901 57.1511 44.7687 57.9365 44.6302C58.6231 42.7506 59.7414 41.1536 61.2912 39.8391C63.1091 38.3385 65.3756 37.3489 68.0909 36.8701C70.1554 36.506 72.039 36.6251 73.7417 37.2273C75.4668 37.8255 76.8118 38.6295 77.7765 39.6394C78.578 38.0173 79.7569 36.6988 81.3133 35.6839C82.8882 34.6427 84.5957 33.9598 86.4358 33.6354C90.4975 32.9192 93.8719 33.6199 96.5591 35.7375C99.2015 37.8631 100.908 41.1138 101.68 45.4896L102.726 52.2118ZM140.359 45.5762C140.644 47.1919 141.053 48.4618 141.586 49.3858C142.119 50.3099 142.884 50.9733 143.88 51.376C143.923 51.4843 143.971 51.6955 144.027 52.0096L144.134 52.6155C144.696 55.8021 144.168 58.4519 142.551 60.5649C141.122 62.4365 139.151 63.5938 136.638 64.037C134.932 64.3377 133.302 64.2088 131.745 63.6502C130.189 63.0916 128.974 62.1028 128.099 60.6837C127.336 60.8182 127.02 61.2557 127.15 61.9963C127.261 62.6246 127.778 63.2622 128.702 63.9092C127.418 65.1537 125.305 66.0352 122.366 66.5535C118.214 67.2855 114.695 66.7491 111.809 64.9443C108.941 63.1131 107.151 60.1779 106.438 56.1386C105.722 52.0769 106.481 48.7038 108.715 46.0193C110.764 43.5987 113.696 42.0521 117.51 41.3794C118.812 41.1499 120.084 41.0181 121.328 40.984C122.163 40.9986 122.617 41.0112 122.688 41.0218C122.716 40.7855 122.716 40.5888 122.688 40.4317C122.585 39.8483 122.022 39.5426 120.999 39.5148C119.976 39.4869 118.668 39.6134 117.075 39.8944C113.687 40.4919 110.912 41.6867 108.753 43.479C107.325 41.8103 106.359 39.551 105.857 36.7011C105.572 35.0854 105.562 33.8492 105.828 32.9926C107.313 31.9672 109.251 30.9544 111.643 29.9541C114.031 28.9315 116.605 28.1768 119.366 27.6901C125.065 26.6851 129.594 27.1708 132.95 29.1473C136.306 31.1238 138.388 34.4009 139.195 38.9788L140.359 45.5762ZM123.18 50.3059C122.237 50.4721 121.841 50.9816 121.992 51.8343C122.134 52.6422 122.755 52.9492 123.855 52.7553C124.618 52.6207 125.147 52.3423 125.443 51.9199C125.735 51.4751 125.799 50.7927 125.637 49.8727C125.637 49.8727 124.818 50.0171 123.18 50.3059ZM165.562 59.3881C159.728 60.4168 154.755 59.4427 150.643 56.4655C146.55 53.462 143.97 48.9308 142.901 42.8719C141.833 36.813 142.952 31.6758 146.258 27.4602C149.204 23.7013 153.303 21.3589 158.554 20.433C163.222 19.61 167.297 20.0831 170.779 21.8524C174.256 23.5992 176.344 26.4474 177.04 30.3969C177.523 33.1346 177.064 35.5177 175.663 37.5464C174.281 39.5486 172.209 40.793 169.449 41.2797C167.205 41.6754 165.227 41.4111 163.513 40.4869C161.819 39.5363 160.666 38.1198 160.057 36.2374C159.07 36.4115 158.639 36.8576 158.766 37.5757C159.055 39.2138 160.128 40.5749 161.985 41.6589C164.132 42.9461 166.586 43.3464 169.346 42.8597C172.129 42.3691 174.324 41.3689 175.932 39.859C177.359 41.3891 178.29 43.3883 178.725 45.8568C179.231 48.7291 178.43 51.4039 176.322 53.8813C173.906 56.7136 170.319 58.5492 165.562 59.3881ZM197.648 39.6046L196.157 40.5964C196.422 42.0999 196.997 43.6529 197.881 45.2555C198.66 46.7842 199.597 48.0997 200.694 49.202C198.876 51.8826 195.992 53.5712 192.043 54.2676C189.776 54.6672 187.708 54.4188 185.838 53.5222C183.67 52.5161 182.391 50.9022 181.999 48.6807L175.073 9.39895C176.039 8.58069 177.238 7.83705 178.671 7.16802C180.125 6.49503 181.627 6.02202 183.175 5.749C185.756 5.29396 187.977 5.42297 189.838 6.13602C191.955 6.98903 193.21 8.52632 193.601 10.7479L194.23 14.3159C194.757 17.3005 194.744 20.3107 194.192 23.3466C194.041 23.6739 193.757 24.1636 193.34 24.8156C192.919 25.4452 192.591 26.0121 192.356 26.5163C192.143 27.0165 192.066 27.4349 192.126 27.7715C192.181 28.0857 192.502 28.3299 193.088 28.5043C194.549 26.5575 195.604 24.5321 196.251 22.4282C196.92 20.3202 197.389 17.5998 197.658 14.2669C197.942 14.1706 198.268 14.0551 198.638 13.9205C199.007 13.7859 199.618 13.5742 200.469 13.2852C201.339 12.9699 201.954 12.7805 202.313 12.7172C205.769 12.1079 208.602 12.4297 210.813 13.6827C213.02 14.9132 214.366 16.9085 214.853 19.6687C215.34 22.4288 214.882 24.9506 213.48 27.234C212.177 29.2917 210.314 30.9968 207.892 32.3495C210.17 33.1972 212.925 33.6022 216.158 33.5643C217.757 35.5498 218.777 37.788 219.216 40.2789C219.651 42.7473 219.23 44.9503 217.952 46.8878C216.522 49.0141 214.259 50.3503 211.162 50.8964C208.088 51.4384 205.344 50.7074 202.932 48.7034C200.537 46.6729 198.776 43.64 197.648 39.6046Z"/>
</mask>
<path d="M26.186 70.2546C26.9028 69.9893 27.2077 69.5538 27.1009 68.9479C26.9901 68.3196 26.6655 67.6595 26.127 66.9678C25.6071 66.2496 24.9043 65.61 24.0186 65.0489C21.7049 63.6058 18.8426 63.185 15.4317 63.7865C13.7486 64.0832 12.2273 64.6407 10.8676 65.4589C9.18071 64.9465 7.72689 63.9187 6.50612 62.3755C5.28535 60.8322 4.50086 59.0733 4.15266 57.0985C3.24259 51.9372 4.69452 47.5742 8.50845 44.0095C11.7877 40.9555 16.1426 38.9497 21.5732 37.9922C25.6124 37.28 29.0893 37.1181 32.0038 37.5066C34.9143 37.8726 37.3634 38.5745 39.3512 39.6123C40.1284 41.0024 40.6575 42.494 40.9385 44.0873C41.2194 45.6805 41.2614 47.1655 41.0646 48.5422C40.8677 49.9189 40.4346 51.0712 39.7652 51.9991C38.9033 51.5726 37.4224 51.2437 35.3223 51.0124C33.2222 50.7812 31.3531 50.8099 29.715 51.0988C28.0768 51.3876 26.9951 51.6825 26.4697 51.9834C25.9667 52.2803 25.7528 52.6419 25.828 53.0683C25.8636 53.2703 25.9309 53.4551 26.0299 53.6227C26.7797 53.2823 27.7717 53.0032 29.0059 52.7856C33.3818 52.014 37.1318 52.4172 40.256 53.995C43.9451 55.8897 46.2249 59.3054 47.0954 64.2423C47.863 68.5957 46.7385 72.5192 43.7218 76.0128C40.4491 79.7598 35.5925 82.2011 29.1521 83.3367C25.6066 83.9619 22.4848 84.2347 19.7867 84.1551C17.0927 84.0979 14.3947 83.625 11.6928 82.7363C9.57849 80.5871 8.29975 78.2558 7.85658 75.7425C7.40946 73.2067 7.90345 70.9562 9.33854 68.991C10.7736 67.0257 12.7478 65.8215 15.2612 65.3783C17.7969 64.9312 19.9524 65.0833 21.7277 65.8346C23.5254 66.582 25.0115 68.0553 26.186 70.2546ZM102.726 52.2118C103.015 53.8499 103.43 55.1535 103.971 56.1224C104.512 57.0914 105.281 57.7772 106.278 58.1799C106.32 58.2882 106.365 58.4769 106.412 58.7462L106.501 59.2511C107.043 62.3255 106.569 64.8848 105.079 66.9293C103.588 68.9737 101.418 70.2472 98.5679 70.7497C95.7404 71.2483 93.3262 70.8757 91.3253 69.632C88.9667 68.1969 87.4609 65.628 86.8081 61.9253L84.9325 51.2886C84.6674 49.7851 84.0412 49.1204 83.0538 49.2945C82.6723 49.3618 82.3852 49.505 82.1925 49.7241L83.6827 54.6326L85.0241 62.2399C85.5622 65.2918 86.4747 67.5141 87.7614 68.9068C86.8861 70.2412 85.698 71.3763 84.197 72.3119C82.7145 73.2212 81.143 73.8222 79.4824 74.115C76.7896 74.5898 74.5879 74.307 72.8774 73.2667C70.8052 72.0124 69.4703 69.691 68.8728 66.3025L66.7896 54.4877C66.5245 52.9842 65.8982 52.3195 64.9109 52.4936C64.5294 52.5609 64.2422 52.7041 64.0495 52.9232L65.5397 57.8317L67.1126 66.7517C67.5557 69.2651 68.2346 71.1468 69.1492 72.3969C67.3497 75.0512 64.464 76.7285 60.492 77.4288C58.1358 77.8443 56.045 77.5998 54.2196 76.6954C52.1157 75.6549 50.8599 73.979 50.4524 71.6677L47.6153 55.578C45.9629 53.9489 44.8974 51.7767 44.4186 49.0615C43.9358 46.3237 44.1804 43.8396 45.1522 41.6089L53.2644 40.1785C54.8576 39.8976 56.3201 40.2529 57.6518 41.2444C56.8267 42.3385 56.4675 43.1885 56.5744 43.7944C56.697 44.4901 57.1511 44.7687 57.9365 44.6302C58.6231 42.7506 59.7414 41.1536 61.2912 39.8391C63.1091 38.3385 65.3756 37.3489 68.0909 36.8701C70.1554 36.506 72.039 36.6251 73.7417 37.2273C75.4668 37.8255 76.8118 38.6295 77.7765 39.6394C78.578 38.0173 79.7569 36.6988 81.3133 35.6839C82.8882 34.6427 84.5957 33.9598 86.4358 33.6354C90.4975 32.9192 93.8719 33.6199 96.5591 35.7375C99.2015 37.8631 100.908 41.1138 101.68 45.4896L102.726 52.2118ZM140.359 45.5762C140.644 47.1919 141.053 48.4618 141.586 49.3858C142.119 50.3099 142.884 50.9733 143.88 51.376C143.923 51.4843 143.971 51.6955 144.027 52.0096L144.134 52.6155C144.696 55.8021 144.168 58.4519 142.551 60.5649C141.122 62.4365 139.151 63.5938 136.638 64.037C134.932 64.3377 133.302 64.2088 131.745 63.6502C130.189 63.0916 128.974 62.1028 128.099 60.6837C127.336 60.8182 127.02 61.2557 127.15 61.9963C127.261 62.6246 127.778 63.2622 128.702 63.9092C127.418 65.1537 125.305 66.0352 122.366 66.5535C118.214 67.2855 114.695 66.7491 111.809 64.9443C108.941 63.1131 107.151 60.1779 106.438 56.1386C105.722 52.0769 106.481 48.7038 108.715 46.0193C110.764 43.5987 113.696 42.0521 117.51 41.3794C118.812 41.1499 120.084 41.0181 121.328 40.984C122.163 40.9986 122.617 41.0112 122.688 41.0218C122.716 40.7855 122.716 40.5888 122.688 40.4317C122.585 39.8483 122.022 39.5426 120.999 39.5148C119.976 39.4869 118.668 39.6134 117.075 39.8944C113.687 40.4919 110.912 41.6867 108.753 43.479C107.325 41.8103 106.359 39.551 105.857 36.7011C105.572 35.0854 105.562 33.8492 105.828 32.9926C107.313 31.9672 109.251 30.9544 111.643 29.9541C114.031 28.9315 116.605 28.1768 119.366 27.6901C125.065 26.6851 129.594 27.1708 132.95 29.1473C136.306 31.1238 138.388 34.4009 139.195 38.9788L140.359 45.5762ZM123.18 50.3059C122.237 50.4721 121.841 50.9816 121.992 51.8343C122.134 52.6422 122.755 52.9492 123.855 52.7553C124.618 52.6207 125.147 52.3423 125.443 51.9199C125.735 51.4751 125.799 50.7927 125.637 49.8727C125.637 49.8727 124.818 50.0171 123.18 50.3059ZM165.562 59.3881C159.728 60.4168 154.755 59.4427 150.643 56.4655C146.55 53.462 143.97 48.9308 142.901 42.8719C141.833 36.813 142.952 31.6758 146.258 27.4602C149.204 23.7013 153.303 21.3589 158.554 20.433C163.222 19.61 167.297 20.0831 170.779 21.8524C174.256 23.5992 176.344 26.4474 177.04 30.3969C177.523 33.1346 177.064 35.5177 175.663 37.5464C174.281 39.5486 172.209 40.793 169.449 41.2797C167.205 41.6754 165.227 41.4111 163.513 40.4869C161.819 39.5363 160.666 38.1198 160.057 36.2374C159.07 36.4115 158.639 36.8576 158.766 37.5757C159.055 39.2138 160.128 40.5749 161.985 41.6589C164.132 42.9461 166.586 43.3464 169.346 42.8597C172.129 42.3691 174.324 41.3689 175.932 39.859C177.359 41.3891 178.29 43.3883 178.725 45.8568C179.231 48.7291 178.43 51.4039 176.322 53.8813C173.906 56.7136 170.319 58.5492 165.562 59.3881ZM197.648 39.6046L196.157 40.5964C196.422 42.0999 196.997 43.6529 197.881 45.2555C198.66 46.7842 199.597 48.0997 200.694 49.202C198.876 51.8826 195.992 53.5712 192.043 54.2676C189.776 54.6672 187.708 54.4188 185.838 53.5222C183.67 52.5161 182.391 50.9022 181.999 48.6807L175.073 9.39895C176.039 8.58069 177.238 7.83705 178.671 7.16802C180.125 6.49503 181.627 6.02202 183.175 5.749C185.756 5.29396 187.977 5.42297 189.838 6.13602C191.955 6.98903 193.21 8.52632 193.601 10.7479L194.23 14.3159C194.757 17.3005 194.744 20.3107 194.192 23.3466C194.041 23.6739 193.757 24.1636 193.34 24.8156C192.919 25.4452 192.591 26.0121 192.356 26.5163C192.143 27.0165 192.066 27.4349 192.126 27.7715C192.181 28.0857 192.502 28.3299 193.088 28.5043C194.549 26.5575 195.604 24.5321 196.251 22.4282C196.92 20.3202 197.389 17.5998 197.658 14.2669C197.942 14.1706 198.268 14.0551 198.638 13.9205C199.007 13.7859 199.618 13.5742 200.469 13.2852C201.339 12.9699 201.954 12.7805 202.313 12.7172C205.769 12.1079 208.602 12.4297 210.813 13.6827C213.02 14.9132 214.366 16.9085 214.853 19.6687C215.34 22.4288 214.882 24.9506 213.48 27.234C212.177 29.2917 210.314 30.9968 207.892 32.3495C210.17 33.1972 212.925 33.6022 216.158 33.5643C217.757 35.5498 218.777 37.788 219.216 40.2789C219.651 42.7473 219.23 44.9503 217.952 46.8878C216.522 49.0141 214.259 50.3503 211.162 50.8964C208.088 51.4384 205.344 50.7074 202.932 48.7034C200.537 46.6729 198.776 43.64 197.648 39.6046Z" fill="#EFEFD0"/>
<path d="M26.186 70.2546L25.3039 70.7256L25.7148 71.4951L26.533 71.1924L26.186 70.2546ZM26.127 66.9678L25.3171 67.5543L25.3273 67.5683L25.3379 67.582L26.127 66.9678ZM24.0186 65.0489L24.5538 64.2042L24.5478 64.2004L24.0186 65.0489ZM10.8676 65.4589L10.5769 66.4157L11.0023 66.5449L11.3832 66.3157L10.8676 65.4589ZM8.50845 44.0095L7.82693 43.2777L7.82561 43.2789L8.50845 44.0095ZM32.0038 37.5066L31.8716 38.4978L31.879 38.4987L32.0038 37.5066ZM39.3512 39.6123L40.224 39.1242L40.0784 38.8639L39.814 38.7258L39.3512 39.6123ZM41.0646 48.5422L40.0746 48.4007L41.0646 48.5422ZM39.7652 51.9991L39.3217 52.8954L40.0808 53.2709L40.5762 52.5841L39.7652 51.9991ZM35.3223 51.0124L35.2128 52.0064L35.3223 51.0124ZM26.4697 51.9834L25.9727 51.1155L25.9613 51.1222L26.4697 51.9834ZM26.0299 53.6227L25.1688 54.1311L25.6254 54.9046L26.4433 54.5333L26.0299 53.6227ZM40.256 53.995L40.7129 53.1054L40.7068 53.1023L40.256 53.995ZM43.7218 76.0128L44.475 76.6706L44.4787 76.6663L43.7218 76.0128ZM19.7867 84.1551L19.8162 83.1555L19.8079 83.1553L19.7867 84.1551ZM11.6928 82.7363L10.9799 83.4376L11.15 83.6104L11.3803 83.6862L11.6928 82.7363ZM21.7277 65.8346L21.3379 66.7556L21.3438 66.758L21.7277 65.8346ZM26.533 71.1924C27.0023 71.0188 27.4615 70.7453 27.7715 70.3026C28.1001 69.8332 28.1774 69.294 28.0857 68.7743L26.1161 69.1215C26.1251 69.1726 26.1202 69.1898 26.1214 69.1835C26.1232 69.1742 26.1285 69.162 26.1332 69.1554C26.1382 69.1483 26.0865 69.2251 25.839 69.3167L26.533 71.1924ZM28.0857 68.7743C27.938 67.9366 27.5192 67.1283 26.9162 66.3535L25.3379 67.582C25.8118 68.1908 26.0422 68.7026 26.1161 69.1215L28.0857 68.7743ZM26.937 66.3813C26.3304 65.5435 25.5274 64.821 24.5538 64.2042L23.4834 65.8936C24.2811 66.399 24.8837 66.9558 25.3171 67.5543L26.937 66.3813ZM24.5478 64.2004C21.9727 62.5943 18.8441 62.1693 15.258 62.8016L15.6053 64.7713C18.8411 64.2007 21.4371 64.6173 23.4894 65.8974L24.5478 64.2004ZM15.258 62.8016C13.4635 63.1181 11.8247 63.7159 10.352 64.6021L11.3832 66.3157C12.6299 65.5655 14.0338 65.0484 15.6053 64.7713L15.258 62.8016ZM11.1582 64.5021C9.68866 64.0557 8.40004 63.1578 7.2904 61.7551L5.72184 62.9959C7.05374 64.6796 8.67276 65.8373 10.5769 66.4157L11.1582 64.5021ZM7.2904 61.7551C6.17449 60.3444 5.45746 58.7396 5.13747 56.9249L3.16785 57.2722C3.54427 59.4069 4.39621 61.3201 5.72184 62.9959L7.2904 61.7551ZM5.13747 56.9249C4.28585 52.0951 5.62562 48.0728 9.19129 44.7401L7.82561 43.2789C3.76342 47.0757 2.19933 51.7794 3.16785 57.2722L5.13747 56.9249ZM9.18998 44.7413C12.2984 41.8464 16.4624 39.9088 21.7468 38.977L21.3995 37.0074C15.8228 37.9907 11.277 40.0646 7.82693 43.2777L9.18998 44.7413ZM21.7468 38.977C25.7218 38.2761 29.0901 38.127 31.8716 38.4978L32.1359 36.5153C29.0885 36.1091 25.5031 36.2838 21.3995 37.0074L21.7468 38.977ZM31.879 38.4987C34.7059 38.8543 37.033 39.5301 38.8883 40.4988L39.814 38.7258C37.6938 37.6189 35.1227 36.8909 32.1285 36.5144L31.879 38.4987ZM38.4783 40.1004C39.2001 41.3911 39.6919 42.7762 39.9537 44.2609L41.9233 43.9136C41.6232 42.2118 41.0568 40.6137 40.224 39.1242L38.4783 40.1004ZM39.9537 44.2609C40.2192 45.7667 40.2543 47.1441 40.0746 48.4007L42.0545 48.6838C42.2686 47.1869 42.2196 45.5944 41.9233 43.9136L39.9537 44.2609ZM40.0746 48.4007C39.8958 49.6514 39.5106 50.6427 38.9542 51.414L40.5762 52.5841C41.3585 51.4997 41.8396 50.1865 42.0545 48.6838L40.0746 48.4007ZM40.2087 51.1028C39.1769 50.5923 37.5426 50.2509 35.4318 50.0185L35.2128 52.0064C37.3022 52.2365 38.6297 52.553 39.3217 52.8954L40.2087 51.1028ZM35.4318 50.0185C33.2615 49.7794 31.2942 49.8049 29.5413 50.114L29.8886 52.0836C31.4121 51.815 33.1829 51.7829 35.2128 52.0064L35.4318 50.0185ZM29.5413 50.114C27.9228 50.3994 26.6714 50.7155 25.9727 51.1156L26.9666 52.8512C27.3187 52.6495 28.2309 52.3759 29.8886 52.0836L29.5413 50.114ZM25.9613 51.1222C25.6183 51.3247 25.2911 51.5966 25.0713 51.9682C24.8389 52.3613 24.7656 52.8015 24.8432 53.242L26.8128 52.8947C26.8126 52.8934 26.8152 52.9087 26.8107 52.934C26.8062 52.9599 26.7974 52.9785 26.7928 52.9864C26.7869 52.9964 26.8181 52.939 26.9781 52.8445L25.9613 51.1222ZM24.8432 53.242C24.8985 53.5556 25.0056 53.8548 25.1688 54.1311L26.891 53.1144C26.8562 53.0554 26.8287 52.9849 26.8128 52.8947L24.8432 53.242ZM26.4433 54.5333C27.0879 54.2406 27.9899 53.9802 29.1796 53.7704L28.8323 51.8008C27.5536 52.0263 26.4715 52.324 25.6165 52.7122L26.4433 54.5333ZM29.1796 53.7704C33.4006 53.0261 36.9203 53.4306 39.8052 54.8876L40.7068 53.1023C37.3433 51.4037 33.3629 51.0019 28.8323 51.8008L29.1796 53.7704ZM39.7991 54.8845C43.1508 56.6059 45.2817 59.7152 46.1106 64.4159L48.0802 64.0687C47.168 58.8957 44.7394 55.1734 40.7128 53.1054L39.7991 54.8845ZM46.1106 64.4159C46.8234 68.4586 45.7952 72.0815 42.965 75.3592L44.4787 76.6663C47.6818 72.9569 48.9026 68.7328 48.0802 64.0687L46.1106 64.4159ZM42.9687 75.355C39.8876 78.8825 35.2652 81.2433 28.9785 82.3519L29.3258 84.3215C35.9198 83.1588 41.0105 80.6371 44.475 76.6706L42.9687 75.355ZM28.9785 82.3519C25.4793 82.9689 22.428 83.2325 19.8162 83.1555L19.7573 85.1546C22.5415 85.2368 25.7339 84.9548 29.3258 84.3215L28.9785 82.3519ZM19.8079 83.1553C17.2183 83.1004 14.6183 82.6459 12.0053 81.7864L11.3803 83.6862C14.1711 84.6042 16.9671 85.0955 19.7655 85.1549L19.8079 83.1553ZM12.4057 82.035C10.407 80.0033 9.2434 77.8487 8.84139 75.5688L6.87177 75.9161C7.35609 78.6628 8.74999 81.1708 10.9799 83.4376L12.4057 82.035ZM8.84139 75.5688C8.43845 73.2836 8.88165 71.3123 10.1461 69.5807L8.53095 68.4012C6.92525 70.6001 6.38047 73.1298 6.87177 75.9161L8.84139 75.5688ZM10.1461 69.5807C11.4209 67.8351 13.1622 66.7639 15.4348 66.3631L15.0875 64.3935C12.3335 64.8791 10.1264 66.2164 8.53095 68.4012L10.1461 69.5807ZM15.4348 66.3631C17.8428 65.9385 19.7908 66.1008 21.3379 66.7556L22.1174 64.9137C20.114 64.0658 17.751 63.9239 15.0875 64.3935L15.4348 66.3631ZM21.3438 66.758C22.8743 67.3943 24.2071 68.6719 25.3039 70.7256L27.0681 69.7835C25.8159 67.4387 24.1765 65.7697 22.1116 64.9112L21.3438 66.758ZM102.726 52.2118L101.738 52.3656L101.74 52.3755L101.742 52.3854L102.726 52.2118ZM106.278 58.1799L107.209 57.8165L107.053 57.4145L106.652 57.2528L106.278 58.1799ZM91.3253 69.632L91.8532 68.7827L91.8451 68.7777L91.3253 69.632ZM82.1925 49.7241L81.4417 49.0635L81.0738 49.4817L81.2356 50.0146L82.1925 49.7241ZM83.6827 54.6326L84.6675 54.459L84.6571 54.3997L84.6396 54.3421L83.6827 54.6326ZM87.7614 68.9068L88.5976 69.4553L89.0261 68.8021L88.4959 68.2282L87.7614 68.9068ZM84.197 72.3119L84.7199 73.1644L84.726 73.1605L84.197 72.3119ZM72.8774 73.2667L73.397 72.4123L73.3952 72.4112L72.8774 73.2667ZM64.0495 52.9232L63.2987 52.2626L62.9308 52.6808L63.0926 53.2137L64.0495 52.9232ZM65.5397 57.8317L66.5245 57.6581L66.5141 57.5988L66.4966 57.5412L65.5397 57.8317ZM69.1492 72.3969L69.9769 72.9581L70.3722 72.375L69.9563 71.8065L69.1492 72.3969ZM54.2196 76.6954L54.6635 75.7993L54.6629 75.799L54.2196 76.6954ZM47.6153 55.578L48.6001 55.4044L48.5447 55.09L48.3174 54.8659L47.6153 55.578ZM45.1522 41.6089L44.9786 40.6241L44.4499 40.7173L44.2354 41.2095L45.1522 41.6089ZM57.6518 41.2444L58.4503 41.8465L59.0561 41.0431L58.249 40.4423L57.6518 41.2444ZM57.9365 44.6302L58.1101 45.615L58.6779 45.5149L58.8758 44.9733L57.9365 44.6302ZM61.2912 39.8391L60.6546 39.0678L60.6444 39.0765L61.2912 39.8391ZM73.7417 37.2273L73.4083 38.1701L73.4141 38.1721L73.7417 37.2273ZM77.7765 39.6394L77.0535 40.3302L78.0403 41.3632L78.6731 40.0824L77.7765 39.6394ZM81.3133 35.6839L81.8595 36.5216L81.8648 36.5181L81.3133 35.6839ZM96.5591 35.7375L97.186 34.9583L97.1781 34.9521L96.5591 35.7375ZM101.68 45.4896L102.668 45.3358L102.667 45.3259L102.665 45.316L101.68 45.4896ZM101.742 52.3854C102.041 54.0844 102.483 55.5075 103.098 56.61L104.844 55.6349C104.378 54.7994 103.989 53.6155 103.711 52.0381L101.742 52.3854ZM103.098 56.61C103.747 57.771 104.688 58.616 105.903 59.1071L106.652 57.2528C105.875 56.9384 105.278 56.4118 104.844 55.6349L103.098 56.61ZM105.346 58.5434C105.343 58.5354 105.352 58.559 105.37 58.6339C105.387 58.7033 105.406 58.7974 105.427 58.9199L107.397 58.5726C107.349 58.3018 107.291 58.0259 107.209 57.8165L105.346 58.5434ZM105.427 58.9199L105.516 59.4248L107.486 59.0775L107.397 58.5726L105.427 58.9199ZM105.516 59.4248C106.023 62.2982 105.565 64.5647 104.271 66.3402L105.887 67.5184C107.573 65.2049 108.064 62.3527 107.486 59.0775L105.516 59.4248ZM104.271 66.3402C102.954 68.1453 101.029 69.3003 98.3943 69.7649L98.7416 71.7345C101.807 71.1941 104.222 69.8022 105.887 67.5184L104.271 66.3402ZM98.3943 69.7649C95.7538 70.2305 93.6015 69.8694 91.8532 68.7827L90.7974 70.4813C93.0509 71.882 95.7271 72.2661 98.7416 71.7345L98.3943 69.7649ZM91.8451 68.7777C89.812 67.5406 88.4147 65.2784 87.7929 61.7517L85.8233 62.099C86.5072 65.9776 88.1214 68.8531 90.8055 70.4863L91.8451 68.7777ZM87.7929 61.7517L85.9173 51.115L83.9477 51.4623L85.8233 62.099L87.7929 61.7517ZM85.9173 51.115C85.7713 50.2868 85.5013 49.5175 84.9919 48.9767C84.4223 48.3721 83.6671 48.171 82.8802 48.3097L83.2275 50.2793C83.3485 50.258 83.4104 50.2703 83.4357 50.278C83.4569 50.2844 83.4889 50.2981 83.5362 50.3482C83.653 50.4722 83.8287 50.787 83.9477 51.4623L85.9173 51.115ZM82.8802 48.3097C82.3485 48.4035 81.8272 48.6253 81.4417 49.0635L82.9433 50.3846C82.9461 50.3814 82.9592 50.3669 82.9986 50.3473C83.0405 50.3264 83.1125 50.2996 83.2275 50.2793L82.8802 48.3097ZM81.2356 50.0146L82.7258 54.9231L84.6396 54.3421L83.1493 49.4336L81.2356 50.0146ZM82.6979 54.8063L84.0393 62.4135L86.0089 62.0662L84.6675 54.459L82.6979 54.8063ZM84.0393 62.4135C84.5916 65.5461 85.5515 67.9885 87.027 69.5855L88.4959 68.2282C87.3978 67.0397 86.5328 65.0374 86.0089 62.0662L84.0393 62.4135ZM86.9253 68.3583C86.1376 69.5591 85.0595 70.5959 83.668 71.4633L84.726 73.1605C86.3365 72.1566 87.6346 70.9234 88.5976 69.4553L86.9253 68.3583ZM83.6742 71.4595C82.2953 72.3052 80.8418 72.8599 79.3088 73.1302L79.6561 75.0998C81.4442 74.7845 83.1338 74.1372 84.7199 73.1643L83.6742 71.4595ZM79.3088 73.1302C76.7673 73.5783 74.8346 73.2867 73.397 72.4123L72.3577 74.121C74.3412 75.3274 76.8119 75.6013 79.6561 75.0998L79.3088 73.1302ZM73.3952 72.4112C71.6596 71.3606 70.4268 69.3565 69.8576 66.1289L67.888 66.4762C68.5139 70.0255 69.9508 72.6641 72.3595 74.1222L73.3952 72.4112ZM69.8576 66.1289L67.7744 54.3141L65.8048 54.6614L67.888 66.4762L69.8576 66.1289ZM67.7744 54.3141C67.6283 53.4859 67.3584 52.7166 66.8489 52.1758C66.2793 51.5712 65.5242 51.3701 64.7372 51.5088L65.0845 53.4784C65.2055 53.4571 65.2675 53.4694 65.2928 53.4771C65.314 53.4835 65.346 53.4972 65.3932 53.5473C65.51 53.6713 65.6857 53.9861 65.8048 54.6614L67.7744 54.3141ZM64.7372 51.5088C64.2055 51.6026 63.6842 51.8244 63.2987 52.2626L64.8003 53.5837C64.8031 53.5805 64.8163 53.566 64.8557 53.5464C64.8975 53.5255 64.9696 53.4987 65.0845 53.4784L64.7372 51.5088ZM63.0926 53.2137L64.5829 58.1222L66.4966 57.5412L65.0064 52.6327L63.0926 53.2137ZM64.5549 58.0054L66.1278 66.9254L68.0974 66.5781L66.5245 57.6581L64.5549 58.0054ZM66.1278 66.9254C66.5824 69.5035 67.2969 71.5586 68.3421 72.9874L69.9563 71.8065C69.1723 70.7349 68.5291 69.0266 68.0974 66.5781L66.1278 66.9254ZM68.3215 71.8358C66.7107 74.2117 64.0967 75.7778 60.3184 76.444L60.6657 78.4136C64.8312 77.6791 67.9887 75.8907 69.9769 72.9581L68.3215 71.8358ZM60.3184 76.444C58.1344 76.8291 56.266 76.5933 54.6635 75.7993L53.7756 77.5914C55.8239 78.6063 58.1372 78.8595 60.6657 78.4136L60.3184 76.444ZM54.6629 75.799C52.8441 74.8996 51.7895 73.492 51.4372 71.494L49.4676 71.8413C49.9304 74.466 51.3872 76.4103 53.7763 77.5917L54.6629 75.799ZM51.4372 71.494L48.6001 55.4044L46.6305 55.7516L49.4676 71.8413L51.4372 71.494ZM48.3174 54.8659C46.839 53.4084 45.8531 51.438 45.4034 48.8878L43.4338 49.2351C43.9416 52.1154 45.0868 54.4894 46.9133 56.2901L48.3174 54.8659ZM45.4034 48.8878C44.9498 46.3152 45.1864 44.034 46.069 42.0083L44.2354 41.2095C43.1743 43.6451 42.9219 46.3322 43.4338 49.2351L45.4034 48.8878ZM45.3259 42.5937L53.438 41.1633L53.0907 39.1937L44.9786 40.6241L45.3259 42.5937ZM53.438 41.1633C54.7522 40.9316 55.9372 41.2145 57.0547 42.0465L58.249 40.4423C56.703 39.2912 54.9631 38.8636 53.0907 39.1937L53.438 41.1633ZM56.8534 40.6423C56.4128 41.2265 56.0655 41.7856 55.8425 42.3133C55.623 42.8328 55.4899 43.4027 55.5896 43.9681L57.5592 43.6208C57.5521 43.5803 57.5451 43.4222 57.6848 43.0917C57.8209 42.7694 58.0657 42.3564 58.4503 41.8465L56.8534 40.6423ZM55.5896 43.9681C55.6835 44.5008 55.9399 45.0437 56.4839 45.3775C57.0016 45.6951 57.5931 45.7061 58.1101 45.615L57.7628 43.6454C57.636 43.6677 57.5593 43.6664 57.5219 43.6622C57.4878 43.6583 57.4989 43.6538 57.5299 43.6727C57.5638 43.6936 57.5836 43.7193 57.589 43.7286C57.5913 43.7324 57.5739 43.7045 57.5592 43.6208L55.5896 43.9681ZM58.8758 44.9733C59.502 43.2592 60.5183 41.8059 61.9381 40.6017L60.6444 39.0765C58.9645 40.5012 57.7443 42.242 56.9972 44.287L58.8758 44.9733ZM61.9278 40.6103C63.5913 39.2371 65.6904 38.3088 68.2645 37.8549L67.9172 35.8853C65.0609 36.3889 62.6268 37.4399 60.6546 39.0679L61.9278 40.6103ZM68.2645 37.8549C70.1868 37.5159 71.8926 37.634 73.4083 38.17L74.0751 36.2845C72.1853 35.6162 70.124 35.4962 67.9172 35.8853L68.2645 37.8549ZM73.4141 38.1721C75.0336 38.7336 76.2269 39.465 77.0535 40.3302L78.4996 38.9487C77.3966 37.794 75.9001 36.9173 74.0693 36.2824L73.4141 38.1721ZM78.6731 40.0824C79.393 38.6253 80.4489 37.4414 81.8595 36.5216L80.7671 34.8463C79.065 35.9562 77.763 37.4093 76.88 39.1965L78.6731 40.0824ZM81.8648 36.5181C83.3267 35.5516 84.9058 34.9206 86.6095 34.6202L86.2622 32.6506C84.2857 32.9991 82.4498 33.7338 80.7618 34.8498L81.8648 36.5181ZM86.6095 34.6202C90.4534 33.9424 93.5223 34.6176 95.9402 36.523L97.1781 34.9521C94.2216 32.6222 90.5416 31.896 86.2622 32.6506L86.6095 34.6202ZM95.9323 36.5167C98.3337 38.4485 99.9524 41.4505 100.695 45.6633L102.665 45.316C101.864 40.777 100.069 37.2777 97.1859 34.9584L95.9323 36.5167ZM100.692 45.6435L101.738 52.3656L103.715 52.058L102.668 45.3358L100.692 45.6435ZM143.88 51.376L144.812 51.0126L144.655 50.6106L144.255 50.4489L143.88 51.376ZM142.551 60.5649L141.756 59.9571L141.756 59.9582L142.551 60.5649ZM128.099 60.6837L128.95 60.1589L128.594 59.581L127.925 59.6989L128.099 60.6837ZM128.702 63.9092L129.398 64.6273L130.268 63.7846L129.276 63.09L128.702 63.9092ZM111.809 64.9443L111.271 65.7872L111.279 65.7922L111.809 64.9443ZM108.715 46.0193L107.951 45.3732L107.946 45.3796L108.715 46.0193ZM121.328 40.984L121.345 39.9841L121.323 39.9837L121.3 39.9843L121.328 40.984ZM122.688 41.0218L122.541 42.011L123.561 42.1622L123.681 41.1384L122.688 41.0218ZM120.999 39.5148L120.972 40.5144L120.999 39.5148ZM108.753 43.479L107.993 44.1292L108.633 44.8775L109.391 44.2485L108.753 43.479ZM105.828 32.9926L105.26 32.1697L104.975 32.3662L104.873 32.6966L105.828 32.9926ZM111.643 29.9541L112.029 30.8768L112.037 30.8734L111.643 29.9541ZM125.443 51.9199L126.262 52.4935L126.271 52.4811L126.279 52.4684L125.443 51.9199ZM125.637 49.8727L126.622 49.699L126.448 48.7142L125.463 48.8879L125.637 49.8727ZM139.374 45.7498C139.669 47.4253 140.106 48.8214 140.72 49.8856L142.452 48.8861C142 48.1021 141.618 46.9585 141.344 45.4025L139.374 45.7498ZM140.72 49.8856C141.365 51.0045 142.304 51.8175 143.506 52.3032L144.255 50.4489C143.464 50.1291 142.873 49.6153 142.452 48.8861L140.72 49.8856ZM142.949 51.7394C142.943 51.7254 142.953 51.7494 142.974 51.8408C142.993 51.9234 143.016 52.0363 143.042 52.1833L145.012 51.836C144.958 51.532 144.895 51.2264 144.812 51.0126L142.949 51.7394ZM143.042 52.1833L143.149 52.7892L145.118 52.4419L145.012 51.836L143.042 52.1833ZM143.149 52.7892C143.673 55.7644 143.168 58.1134 141.756 59.9571L143.345 61.1727C145.168 58.7903 145.718 55.8398 145.118 52.4419L143.149 52.7892ZM141.756 59.9582C140.493 61.6127 138.753 62.6486 136.464 63.0522L136.811 65.0218C139.549 64.539 141.751 63.2603 143.345 61.1716L141.756 59.9582ZM136.464 63.0522C134.922 63.3242 133.468 63.2059 132.083 62.709L131.408 64.5914C133.135 65.2116 134.943 65.3512 136.811 65.0218L136.464 63.0522ZM132.083 62.709C130.742 62.2277 129.707 61.3867 128.95 60.1589L127.247 61.2085C128.24 62.8188 129.636 63.9556 131.408 64.5914L132.083 62.709ZM127.925 59.6989C127.399 59.7916 126.845 60.0207 126.479 60.527C126.108 61.0396 126.072 61.6403 126.165 62.1699L128.135 61.8226C128.117 61.7192 128.122 61.6672 128.124 61.6533C128.125 61.6449 128.122 61.6675 128.1 61.6985C128.078 61.7287 128.061 61.7342 128.079 61.7249C128.1 61.7135 128.158 61.6886 128.272 61.6685L127.925 59.6989ZM126.165 62.1699C126.347 63.1993 127.141 64.0368 128.129 64.7283L129.276 63.09C128.415 62.4876 128.175 62.05 128.135 61.8226L126.165 62.1699ZM128.006 63.191C126.932 64.2314 125.053 65.0642 122.192 65.5687L122.539 67.5383C125.558 67.0062 127.903 66.076 129.398 64.6273L128.006 63.191ZM122.192 65.5687C118.224 66.2685 114.969 65.7409 112.339 64.0964L111.279 65.7922C114.422 67.7574 118.205 68.3026 122.539 67.5383L122.192 65.5687ZM112.347 64.1015C109.763 62.4515 108.098 59.7898 107.423 55.965L105.454 56.3123C106.204 60.5659 108.119 63.7747 111.271 65.7872L112.347 64.1015ZM107.423 55.965C106.748 52.135 107.472 49.0757 109.483 46.6589L107.946 45.3796C105.489 48.3319 104.697 52.0189 105.454 56.3123L107.423 55.965ZM109.478 46.6653C111.345 44.4601 114.047 43.0056 117.684 42.3642L117.337 40.3946C113.345 41.0985 110.183 42.7373 107.951 45.3732L109.478 46.6653ZM117.684 42.3642C118.94 42.1427 120.164 42.0163 121.355 41.9836L121.3 39.9843C120.005 40.0199 118.684 40.1571 117.337 40.3946L117.684 42.3642ZM121.31 41.9838C121.727 41.9911 122.045 41.9978 122.267 42.004C122.378 42.0071 122.461 42.0099 122.519 42.0125C122.6 42.0161 122.585 42.0175 122.541 42.011L122.835 40.0326C122.723 40.016 122.51 40.01 122.322 40.0048C122.091 39.9983 121.764 39.9915 121.345 39.9841L121.31 41.9838ZM123.681 41.1384C123.715 40.848 123.724 40.5456 123.673 40.2581L121.703 40.6054C121.708 40.632 121.716 40.7229 121.695 40.9051L123.681 41.1384ZM123.673 40.2581C123.564 39.6393 123.19 39.1708 122.666 38.8861C122.188 38.6263 121.611 38.5311 121.027 38.5151L120.972 40.5144C121.41 40.5263 121.627 40.5979 121.712 40.6437C121.745 40.6619 121.74 40.6663 121.724 40.6457C121.707 40.623 121.703 40.6034 121.703 40.6054L123.673 40.2581ZM121.027 38.5151C119.909 38.4847 118.528 38.6228 116.901 38.9096L117.249 40.8792C118.809 40.604 120.044 40.4891 120.972 40.5144L121.027 38.5151ZM116.901 38.9096C113.38 39.5304 110.435 40.7838 108.114 42.7094L109.391 44.2485C111.39 42.5897 113.993 41.4533 117.249 40.8792L116.901 38.9096ZM109.513 42.8288C108.232 41.3326 107.323 39.2557 106.842 36.5274L104.872 36.8747C105.396 39.8464 106.417 42.288 107.993 44.1292L109.513 42.8288ZM106.842 36.5274C106.565 34.9588 106.589 33.9141 106.783 33.2886L104.873 32.6966C104.536 33.7844 104.579 35.212 104.872 36.8747L106.842 36.5274ZM106.396 33.8155C107.805 32.8425 109.676 31.8607 112.029 30.8767L111.258 29.0316C108.827 30.048 106.821 31.0918 105.26 32.1697L106.396 33.8155ZM112.037 30.8734C114.349 29.8832 116.849 29.1493 119.539 28.6749L119.192 26.7053C116.362 27.2043 113.714 27.9797 111.25 29.0349L112.037 30.8734ZM119.539 28.6749C125.115 27.6918 129.371 28.2001 132.443 30.009L133.457 28.2856C129.816 26.1415 125.016 25.6784 119.192 26.7053L119.539 28.6749ZM132.443 30.009C135.498 31.8081 137.443 34.8014 138.211 39.1524L140.18 38.8051C139.333 34.0005 137.115 30.4395 133.457 28.2856L132.443 30.009ZM138.211 39.1524L139.374 45.7498L141.344 45.4025L140.18 38.8051L138.211 39.1524ZM123.006 49.3211C122.406 49.4269 121.796 49.6723 121.386 50.1989C120.961 50.7458 120.9 51.403 121.007 52.008L122.976 51.6607C122.933 51.413 122.995 51.3891 122.965 51.4264C122.952 51.4436 123.011 51.3511 123.354 51.2908L123.006 49.3211ZM121.007 52.008C121.122 52.6599 121.471 53.2453 122.121 53.5669C122.708 53.8568 123.387 53.8532 124.028 53.7401L123.681 51.7705C123.223 51.8513 123.042 51.7911 123.007 51.774C123.002 51.7712 123.003 51.771 123.007 51.7744C123.009 51.7759 123.01 51.7776 123.012 51.7791C123.013 51.7807 123.013 51.7815 123.013 51.7813C123.013 51.781 123.008 51.7738 123.001 51.7554C122.994 51.7366 122.984 51.7061 122.976 51.6607L121.007 52.008ZM124.028 53.7401C124.923 53.5823 125.752 53.2213 126.262 52.4935L124.624 51.3464C124.542 51.4633 124.312 51.6591 123.681 51.7705L124.028 53.7401ZM126.279 52.4684C126.784 51.6987 126.798 50.6962 126.622 49.699L124.652 50.0463C124.801 50.8892 124.685 51.2516 124.607 51.3714L126.279 52.4684ZM125.637 49.8727C125.463 48.8879 125.463 48.8879 125.463 48.8879L125.463 48.8879C125.463 48.8879 125.463 48.8879 125.463 48.8879C125.463 48.8879 125.463 48.8879 125.463 48.8879C125.463 48.8879 125.463 48.8879 125.463 48.8879C125.463 48.8879 125.463 48.8879 125.463 48.8879C125.463 48.8879 125.463 48.8879 125.463 48.8879C125.463 48.888 125.463 48.888 125.463 48.888C125.463 48.888 125.463 48.888 125.463 48.888C125.463 48.888 125.463 48.888 125.463 48.888C125.462 48.888 125.462 48.8881 125.462 48.8881C125.462 48.8881 125.462 48.8881 125.462 48.8881C125.462 48.8881 125.462 48.8881 125.462 48.8881C125.462 48.8882 125.462 48.8882 125.462 48.8882C125.462 48.8882 125.461 48.8882 125.461 48.8882C125.461 48.8883 125.461 48.8883 125.461 48.8883C125.461 48.8883 125.461 48.8883 125.461 48.8883C125.461 48.8884 125.461 48.8884 125.46 48.8884C125.46 48.8884 125.46 48.8884 125.46 48.8885C125.46 48.8885 125.46 48.8885 125.46 48.8885C125.46 48.8885 125.459 48.8886 125.459 48.8886C125.459 48.8886 125.459 48.8886 125.459 48.8887C125.459 48.8887 125.459 48.8887 125.458 48.8887C125.458 48.8888 125.458 48.8888 125.458 48.8888C125.458 48.8888 125.458 48.8889 125.458 48.8889C125.457 48.8889 125.457 48.889 125.457 48.889C125.457 48.889 125.457 48.889 125.457 48.8891C125.456 48.8891 125.456 48.8891 125.456 48.8892C125.456 48.8892 125.456 48.8892 125.456 48.8893C125.455 48.8893 125.455 48.8893 125.455 48.8894C125.455 48.8894 125.455 48.8894 125.454 48.8895C125.454 48.8895 125.454 48.8895 125.454 48.8896C125.454 48.8896 125.453 48.8896 125.453 48.8897C125.453 48.8897 125.453 48.8897 125.453 48.8898C125.452 48.8898 125.452 48.8899 125.452 48.8899C125.452 48.8899 125.452 48.89 125.451 48.89C125.451 48.89 125.451 48.8901 125.451 48.8901C125.45 48.8902 125.45 48.8902 125.45 48.8903C125.45 48.8903 125.449 48.8903 125.449 48.8904C125.449 48.8904 125.449 48.8905 125.448 48.8905C125.448 48.8906 125.448 48.8906 125.448 48.8906C125.447 48.8907 125.447 48.8907 125.447 48.8908C125.447 48.8908 125.446 48.8909 125.446 48.8909C125.446 48.891 125.446 48.891 125.445 48.8911C125.445 48.8911 125.445 48.8912 125.444 48.8912C125.444 48.8913 125.444 48.8913 125.444 48.8914C125.443 48.8914 125.443 48.8915 125.443 48.8915C125.442 48.8916 125.442 48.8916 125.442 48.8917C125.442 48.8917 125.441 48.8918 125.441 48.8918C125.441 48.8919 125.44 48.8919 125.44 48.892C125.44 48.8921 125.439 48.8921 125.439 48.8922C125.439 48.8922 125.438 48.8923 125.438 48.8923C125.438 48.8924 125.437 48.8924 125.437 48.8925C125.437 48.8926 125.436 48.8926 125.436 48.8927C125.436 48.8927 125.435 48.8928 125.435 48.8929C125.435 48.8929 125.434 48.893 125.434 48.893C125.434 48.8931 125.433 48.8932 125.433 48.8932C125.433 48.8933 125.432 48.8934 125.432 48.8934C125.432 48.8935 125.431 48.8936 125.431 48.8936C125.43 48.8937 125.43 48.8938 125.43 48.8938C125.429 48.8939 125.429 48.8939 125.429 48.894C125.428 48.8941 125.428 48.8942 125.427 48.8942C125.427 48.8943 125.427 48.8944 125.426 48.8944C125.426 48.8945 125.425 48.8946 125.425 48.8946C125.425 48.8947 125.424 48.8948 125.424 48.8948C125.423 48.8949 125.423 48.895 125.423 48.8951C125.422 48.8951 125.422 48.8952 125.421 48.8953C125.421 48.8954 125.421 48.8954 125.42 48.8955C125.42 48.8956 125.419 48.8957 125.419 48.8957C125.418 48.8958 125.418 48.8959 125.417 48.896C125.417 48.896 125.417 48.8961 125.416 48.8962C125.416 48.8963 125.415 48.8964 125.415 48.8964C125.414 48.8965 125.414 48.8966 125.413 48.8967C125.413 48.8968 125.413 48.8968 125.412 48.8969C125.412 48.897 125.411 48.8971 125.411 48.8972C125.41 48.8972 125.41 48.8973 125.409 48.8974C125.409 48.8975 125.408 48.8976 125.408 48.8977C125.407 48.8977 125.407 48.8978 125.406 48.8979C125.406 48.898 125.405 48.8981 125.405 48.8982C125.404 48.8983 125.404 48.8984 125.403 48.8984C125.403 48.8985 125.402 48.8986 125.402 48.8987C125.401 48.8988 125.401 48.8989 125.4 48.899C125.4 48.8991 125.399 48.8992 125.399 48.8993C125.398 48.8993 125.398 48.8994 125.397 48.8995C125.397 48.8996 125.396 48.8997 125.396 48.8998C125.395 48.8999 125.395 48.9 125.394 48.9001C125.394 48.9002 125.393 48.9003 125.392 48.9004C125.392 48.9005 125.391 48.9006 125.391 48.9007C125.39 48.9008 125.39 48.9009 125.389 48.901C125.389 48.9011 125.388 48.9012 125.388 48.9013C125.387 48.9014 125.386 48.9015 125.386 48.9016C125.385 48.9017 125.385 48.9018 125.384 48.9019C125.384 48.902 125.383 48.9021 125.382 48.9022C125.382 48.9023 125.381 48.9024 125.381 48.9025C125.38 48.9026 125.379 48.9027 125.379 48.9028C125.378 48.9029 125.378 48.903 125.377 48.9031C125.376 48.9032 125.376 48.9033 125.375 48.9034C125.375 48.9035 125.374 48.9036 125.373 48.9037C125.373 48.9038 125.372 48.904 125.372 48.9041C125.371 48.9042 125.37 48.9043 125.37 48.9044C125.369 48.9045 125.368 48.9046 125.368 48.9047C125.367 48.9048 125.367 48.9049 125.366 48.9051C125.365 48.9052 125.365 48.9053 125.364 48.9054C125.363 48.9055 125.363 48.9056 125.362 48.9057C125.361 48.9059 125.361 48.906 125.36 48.9061C125.359 48.9062 125.359 48.9063 125.358 48.9064C125.357 48.9066 125.357 48.9067 125.356 48.9068C125.355 48.9069 125.355 48.907 125.354 48.9071C125.353 48.9073 125.353 48.9074 125.352 48.9075C125.351 48.9076 125.351 48.9077 125.35 48.9079C125.349 48.908 125.349 48.9081 125.348 48.9082C125.347 48.9084 125.347 48.9085 125.346 48.9086C125.345 48.9087 125.344 48.9088 125.344 48.909C125.343 48.9091 125.342 48.9092 125.342 48.9093C125.341 48.9095 125.34 48.9096 125.339 48.9097C125.339 48.9099 125.338 48.91 125.337 48.9101C125.337 48.9102 125.336 48.9104 125.335 48.9105C125.334 48.9106 125.334 48.9107 125.333 48.9109C125.332 48.911 125.331 48.9111 125.331 48.9113C125.33 48.9114 125.329 48.9115 125.328 48.9117C125.328 48.9118 125.327 48.9119 125.326 48.9121C125.325 48.9122 125.325 48.9123 125.324 48.9125C125.323 48.9126 125.322 48.9127 125.322 48.9129C125.321 48.913 125.32 48.9131 125.319 48.9133C125.319 48.9134 125.318 48.9136 125.317 48.9137C125.316 48.9138 125.315 48.914 125.315 48.9141C125.314 48.9142 125.313 48.9144 125.312 48.9145C125.311 48.9147 125.311 48.9148 125.31 48.9149C125.309 48.9151 125.308 48.9152 125.307 48.9154C125.307 48.9155 125.306 48.9157 125.305 48.9158C125.304 48.9159 125.303 48.9161 125.303 48.9162C125.302 48.9164 125.301 48.9165 125.3 48.9167C125.299 48.9168 125.298 48.917 125.298 48.9171C125.297 48.9172 125.296 48.9174 125.295 48.9175C125.294 48.9177 125.293 48.9178 125.293 48.918C125.292 48.9181 125.291 48.9183 125.29 48.9184C125.289 48.9186 125.288 48.9187 125.287 48.9189C125.287 48.919 125.286 48.9192 125.285 48.9193C125.284 48.9195 125.283 48.9196 125.282 48.9198C125.281 48.92 125.281 48.9201 125.28 48.9203C125.279 48.9204 125.278 48.9206 125.277 48.9207C125.276 48.9209 125.275 48.921 125.274 48.9212C125.274 48.9213 125.273 48.9215 125.272 48.9217C125.271 48.9218 125.27 48.922 125.269 48.9221C125.268 48.9223 125.267 48.9225 125.266 48.9226C125.265 48.9228 125.265 48.9229 125.264 48.9231C125.263 48.9233 125.262 48.9234 125.261 48.9236C125.26 48.9237 125.259 48.9239 125.258 48.9241C125.257 48.9242 125.256 48.9244 125.255 48.9246C125.254 48.9247 125.253 48.9249 125.253 48.9251C125.252 48.9252 125.251 48.9254 125.25 48.9256C125.249 48.9257 125.248 48.9259 125.247 48.9261C125.246 48.9262 125.245 48.9264 125.244 48.9266C125.243 48.9267 125.242 48.9269 125.241 48.9271C125.24 48.9272 125.239 48.9274 125.238 48.9276C125.237 48.9277 125.236 48.9279 125.235 48.9281C125.234 48.9283 125.233 48.9284 125.232 48.9286C125.231 48.9288 125.23 48.929 125.229 48.9291C125.228 48.9293 125.227 48.9295 125.226 48.9297C125.225 48.9298 125.224 48.93 125.223 48.9302C125.222 48.9304 125.221 48.9305 125.22 48.9307C125.219 48.9309 125.218 48.9311 125.217 48.9312C125.216 48.9314 125.215 48.9316 125.214 48.9318C125.213 48.932 125.212 48.9321 125.211 48.9323C125.21 48.9325 125.209 48.9327 125.208 48.9329C125.207 48.933 125.206 48.9332 125.205 48.9334C125.204 48.9336 125.203 48.9338 125.202 48.934C125.201 48.9341 125.2 48.9343 125.199 48.9345C125.198 48.9347 125.197 48.9349 125.196 48.9351C125.195 48.9353 125.194 48.9354 125.193 48.9356C125.191 48.9358 125.19 48.936 125.189 48.9362C125.188 48.9364 125.187 48.9366 125.186 48.9368C125.185 48.937 125.184 48.9371 125.183 48.9373C125.182 48.9375 125.181 48.9377 125.18 48.9379C125.179 48.9381 125.177 48.9383 125.176 48.9385C125.175 48.9387 125.174 48.9389 125.173 48.9391C125.172 48.9393 125.171 48.9395 125.17 48.9396C125.169 48.9398 125.168 48.94 125.166 48.9402C125.165 48.9404 125.164 48.9406 125.163 48.9408C125.162 48.941 125.161 48.9412 125.16 48.9414C125.159 48.9416 125.157 48.9418 125.156 48.942C125.155 48.9422 125.154 48.9424 125.153 48.9426C125.152 48.9428 125.151 48.943 125.15 48.9432C125.148 48.9434 125.147 48.9436 125.146 48.9438C125.145 48.944 125.144 48.9442 125.143 48.9444C125.141 48.9446 125.14 48.9448 125.139 48.945C125.138 48.9453 125.137 48.9455 125.136 48.9457C125.134 48.9459 125.133 48.9461 125.132 48.9463C125.131 48.9465 125.13 48.9467 125.129 48.9469C125.127 48.9471 125.126 48.9473 125.125 48.9475C125.124 48.9477 125.123 48.948 125.121 48.9482C125.12 48.9484 125.119 48.9486 125.118 48.9488C125.117 48.949 125.115 48.9492 125.114 48.9494C125.113 48.9496 125.112 48.9499 125.111 48.9501C125.109 48.9503 125.108 48.9505 125.107 48.9507C125.106 48.9509 125.105 48.9511 125.103 48.9514C125.102 48.9516 125.101 48.9518 125.1 48.952C125.098 48.9522 125.097 48.9524 125.096 48.9527C125.095 48.9529 125.093 48.9531 125.092 48.9533C125.091 48.9535 125.09 48.9538 125.088 48.954C125.087 48.9542 125.086 48.9544 125.085 48.9546C125.083 48.9549 125.082 48.9551 125.081 48.9553C125.08 48.9555 125.078 48.9558 125.077 48.956C125.076 48.9562 125.075 48.9564 125.073 48.9566C125.072 48.9569 125.071 48.9571 125.07 48.9573C125.068 48.9576 125.067 48.9578 125.066 48.958C125.064 48.9582 125.063 48.9585 125.062 48.9587C125.061 48.9589 125.059 48.9591 125.058 48.9594C125.057 48.9596 125.055 48.9598 125.054 48.9601C125.053 48.9603 125.051 48.9605 125.05 48.9608C125.049 48.961 125.047 48.9612 125.046 48.9614C125.045 48.9617 125.043 48.9619 125.042 48.9621C125.041 48.9624 125.039 48.9626 125.038 48.9629C125.037 48.9631 125.035 48.9633 125.034 48.9636C125.033 48.9638 125.031 48.964 125.03 48.9643C125.029 48.9645 125.027 48.9647 125.026 48.965C125.025 48.9652 125.023 48.9655 125.022 48.9657C125.021 48.9659 125.019 48.9662 125.018 48.9664C125.017 48.9667 125.015 48.9669 125.014 48.9671C125.013 48.9674 125.011 48.9676 125.01 48.9679C125.008 48.9681 125.007 48.9683 125.006 48.9686C125.004 48.9688 125.003 48.9691 125.001 48.9693C125 48.9696 124.999 48.9698 124.997 48.9701C124.996 48.9703 124.995 48.9706 124.993 48.9708C124.992 48.971 124.99 48.9713 124.989 48.9715C124.988 48.9718 124.986 48.972 124.985 48.9723C124.983 48.9725 124.982 48.9728 124.98 48.973C124.979 48.9733 124.978 48.9735 124.976 48.9738C124.975 48.974 124.973 48.9743 124.972 48.9745C124.97 48.9748 124.969 48.975 124.968 48.9753C124.966 48.9756 124.965 48.9758 124.963 48.9761C124.962 48.9763 124.96 48.9766 124.959 48.9768C124.957 48.9771 124.956 48.9773 124.955 48.9776C124.953 48.9779 124.952 48.9781 124.95 48.9784C124.949 48.9786 124.947 48.9789 124.946 48.9791C124.944 48.9794 124.943 48.9797 124.941 48.9799C124.94 48.9802 124.938 48.9804 124.937 48.9807C124.935 48.981 124.934 48.9812 124.932 48.9815C124.931 48.9817 124.929 48.982 124.928 48.9823C124.927 48.9825 124.925 48.9828 124.924 48.9831C124.922 48.9833 124.921 48.9836 124.919 48.9839C124.918 48.9841 124.916 48.9844 124.914 48.9847C124.913 48.9849 124.911 48.9852 124.91 48.9855C124.908 48.9857 124.907 48.986 124.905 48.9863C124.904 48.9865 124.902 48.9868 124.901 48.9871C124.899 48.9873 124.898 48.9876 124.896 48.9879C124.895 48.9882 124.893 48.9884 124.892 48.9887C124.89 48.989 124.888 48.9892 124.887 48.9895C124.885 48.9898 124.884 48.9901 124.882 48.9903C124.881 48.9906 124.879 48.9909 124.878 48.9912C124.876 48.9914 124.874 48.9917 124.873 48.992C124.871 48.9923 124.87 48.9925 124.868 48.9928C124.867 48.9931 124.865 48.9934 124.863 48.9937C124.862 48.9939 124.86 48.9942 124.859 48.9945C124.857 48.9948 124.856 48.9951 124.854 48.9953C124.852 48.9956 124.851 48.9959 124.849 48.9962C124.848 48.9965 124.846 48.9967 124.844 48.997C124.843 48.9973 124.841 48.9976 124.84 48.9979C124.838 48.9982 124.836 48.9985 124.835 48.9987C124.833 48.999 124.831 48.9993 124.83 48.9996C124.828 48.9999 124.827 49.0002 124.825 49.0005C124.823 49.0007 124.822 49.001 124.82 49.0013C124.818 49.0016 124.817 49.0019 124.815 49.0022C124.813 49.0025 124.812 49.0028 124.81 49.0031C124.808 49.0034 124.807 49.0036 124.805 49.0039C124.804 49.0042 124.802 49.0045 124.8 49.0048C124.799 49.0051 124.797 49.0054 124.795 49.0057C124.794 49.006 124.792 49.0063 124.79 49.0066C124.789 49.0069 124.787 49.0072 124.785 49.0075C124.783 49.0078 124.782 49.0081 124.78 49.0084C124.778 49.0087 124.777 49.009 124.775 49.0092C124.773 49.0095 124.772 49.0098 124.77 49.0101C124.768 49.0104 124.767 49.0107 124.765 49.011C124.763 49.0113 124.761 49.0117 124.76 49.012C124.758 49.0123 124.756 49.0126 124.755 49.0129C124.753 49.0132 124.751 49.0135 124.749 49.0138C124.748 49.0141 124.746 49.0144 124.744 49.0147C124.742 49.015 124.741 49.0153 124.739 49.0156C124.737 49.0159 124.736 49.0162 124.734 49.0165C124.732 49.0168 124.73 49.0171 124.729 49.0174C124.727 49.0178 124.725 49.0181 124.723 49.0184C124.722 49.0187 124.72 49.019 124.718 49.0193C124.716 49.0196 124.714 49.0199 124.713 49.0202C124.711 49.0206 124.709 49.0209 124.707 49.0212C124.706 49.0215 124.704 49.0218 124.702 49.0221C124.7 49.0224 124.699 49.0227 124.697 49.0231C124.695 49.0234 124.693 49.0237 124.691 49.024C124.69 49.0243 124.688 49.0246 124.686 49.025C124.684 49.0253 124.682 49.0256 124.681 49.0259C124.679 49.0262 124.677 49.0265 124.675 49.0269C124.673 49.0272 124.671 49.0275 124.67 49.0278C124.668 49.0281 124.666 49.0285 124.664 49.0288C124.662 49.0291 124.661 49.0294 124.659 49.0298C124.657 49.0301 124.655 49.0304 124.653 49.0307C124.651 49.0311 124.65 49.0314 124.648 49.0317C124.646 49.032 124.644 49.0324 124.642 49.0327C124.64 49.033 124.638 49.0333 124.637 49.0337C124.635 49.034 124.633 49.0343 124.631 49.0346C124.629 49.035 124.627 49.0353 124.625 49.0356C124.624 49.036 124.622 49.0363 124.62 49.0366C124.618 49.0369 124.616 49.0373 124.614 49.0376C124.612 49.0379 124.61 49.0383 124.609 49.0386C124.607 49.0389 124.605 49.0393 124.603 49.0396C124.601 49.0399 124.599 49.0403 124.597 49.0406C124.595 49.0409 124.593 49.0413 124.591 49.0416C124.59 49.042 124.588 49.0423 124.586 49.0426C124.584 49.043 124.582 49.0433 124.58 49.0436C124.578 49.044 124.576 49.0443 124.574 49.0447C124.572 49.045 124.57 49.0453 124.568 49.0457C124.567 49.046 124.565 49.0464 124.563 49.0467C124.561 49.047 124.559 49.0474 124.557 49.0477C124.555 49.0481 124.553 49.0484 124.551 49.0488C124.549 49.0491 124.547 49.0494 124.545 49.0498C124.543 49.0501 124.541 49.0505 124.539 49.0508C124.537 49.0512 124.535 49.0515 124.533 49.0519C124.531 49.0522 124.529 49.0526 124.527 49.0529C124.525 49.0533 124.523 49.0536 124.521 49.054C124.52 49.0543 124.518 49.0547 124.516 49.055C124.514 49.0554 124.512 49.0557 124.51 49.0561C124.508 49.0564 124.506 49.0568 124.504 49.0571C124.502 49.0575 124.5 49.0578 124.498 49.0582C124.496 49.0585 124.494 49.0589 124.492 49.0592C124.49 49.0596 124.488 49.0599 124.486 49.0603C124.483 49.0607 124.481 49.061 124.479 49.0614C124.477 49.0617 124.475 49.0621 124.473 49.0624C124.471 49.0628 124.469 49.0632 124.467 49.0635C124.465 49.0639 124.463 49.0642 124.461 49.0646C124.459 49.065 124.457 49.0653 124.455 49.0657C124.453 49.066 124.451 49.0664 124.449 49.0668C124.447 49.0671 124.445 49.0675 124.443 49.0679C124.441 49.0682 124.439 49.0686 124.436 49.0689C124.434 49.0693 124.432 49.0697 124.43 49.07C124.428 49.0704 124.426 49.0708 124.424 49.0711C124.422 49.0715 124.42 49.0719 124.418 49.0722C124.416 49.0726 124.414 49.073 124.411 49.0734C124.409 49.0737 124.407 49.0741 124.405 49.0745C124.403 49.0748 124.401 49.0752 124.399 49.0756C124.397 49.0759 124.395 49.0763 124.393 49.0767C124.39 49.0771 124.388 49.0774 124.386 49.0778C124.384 49.0782 124.382 49.0786 124.38 49.0789C124.378 49.0793 124.376 49.0797 124.373 49.0801C124.371 49.0804 124.369 49.0808 124.367 49.0812C124.365 49.0816 124.363 49.0819 124.361 49.0823C124.359 49.0827 124.356 49.0831 124.354 49.0835C124.352 49.0838 124.35 49.0842 124.348 49.0846C124.346 49.085 124.343 49.0854 124.341 49.0857C124.339 49.0861 124.337 49.0865 124.335 49.0869C124.333 49.0873 124.33 49.0876 124.328 49.088C124.326 49.0884 124.324 49.0888 124.322 49.0892C124.32 49.0896 124.317 49.0899 124.315 49.0903C124.313 49.0907 124.311 49.0911 124.309 49.0915C124.306 49.0919 124.304 49.0923 124.302 49.0927C124.3 49.093 124.298 49.0934 124.295 49.0938C124.293 49.0942 124.291 49.0946 124.289 49.095C124.287 49.0954 124.284 49.0958 124.282 49.0962C124.28 49.0966 124.278 49.0969 124.275 49.0973C124.273 49.0977 124.271 49.0981 124.269 49.0985C124.267 49.0989 124.264 49.0993 124.262 49.0997C124.26 49.1001 124.258 49.1005 124.255 49.1009C124.253 49.1013 124.251 49.1017 124.249 49.1021C124.246 49.1025 124.244 49.1029 124.242 49.1033C124.24 49.1037 124.237 49.1041 124.235 49.1045C124.233 49.1049 124.231 49.1053 124.228 49.1057C124.226 49.1061 124.224 49.1065 124.221 49.1069C124.219 49.1073 124.217 49.1077 124.215 49.1081C124.212 49.1085 124.21 49.1089 124.208 49.1093C124.206 49.1097 124.203 49.1101 124.201 49.1105C124.199 49.1109 124.196 49.1113 124.194 49.1117C124.192 49.1121 124.189 49.1125 124.187 49.1129C124.185 49.1133 124.183 49.1137 124.18 49.1141C124.178 49.1145 124.176 49.1149 124.173 49.1154C124.171 49.1158 124.169 49.1162 124.166 49.1166C124.164 49.117 124.162 49.1174 124.159 49.1178C124.157 49.1182 124.155 49.1186 124.152 49.1191C124.15 49.1195 124.148 49.1199 124.145 49.1203C124.143 49.1207 124.141 49.1211 124.138 49.1215C124.136 49.1219 124.134 49.1224 124.131 49.1228C124.129 49.1232 124.126 49.1236 124.124 49.124C124.122 49.1244 124.119 49.1249 124.117 49.1253C124.115 49.1257 124.112 49.1261 124.11 49.1265C124.108 49.127 124.105 49.1274 124.103 49.1278C124.1 49.1282 124.098 49.1286 124.096 49.129C124.093 49.1295 124.091 49.1299 124.088 49.1303C124.086 49.1307 124.084 49.1312 124.081 49.1316C124.079 49.132 124.076 49.1324 124.074 49.1329C124.072 49.1333 124.069 49.1337 124.067 49.1341C124.064 49.1346 124.062 49.135 124.06 49.1354C124.057 49.1358 124.055 49.1363 124.052 49.1367C124.05 49.1371 124.047 49.1375 124.045 49.138C124.043 49.1384 124.04 49.1388 124.038 49.1393C124.035 49.1397 124.033 49.1401 124.03 49.1405C124.028 49.141 124.026 49.1414 124.023 49.1418C124.021 49.1423 124.018 49.1427 124.016 49.1431C124.013 49.1436 124.011 49.144 124.008 49.1444C124.006 49.1449 124.003 49.1453 124.001 49.1457C123.998 49.1462 123.996 49.1466 123.994 49.1471C123.991 49.1475 123.989 49.1479 123.986 49.1484C123.984 49.1488 123.981 49.1492 123.979 49.1497C123.976 49.1501 123.974 49.1506 123.971 49.151C123.969 49.1514 123.966 49.1519 123.964 49.1523C123.961 49.1528 123.959 49.1532 123.956 49.1536C123.954 49.1541 123.951 49.1545 123.949 49.155C123.946 49.1554 123.944 49.1559 123.941 49.1563C123.939 49.1567 123.936 49.1572 123.934 49.1576C123.931 49.1581 123.928 49.1585 123.926 49.159C123.923 49.1594 123.921 49.1599 123.918 49.1603C123.916 49.1608 123.913 49.1612 123.911 49.1617C123.908 49.1621 123.906 49.1625 123.903 49.163C123.901 49.1634 123.898 49.1639 123.895 49.1643C123.893 49.1648 123.89 49.1653 123.888 49.1657C123.885 49.1662 123.883 49.1666 123.88 49.1671C123.877 49.1675 123.875 49.168 123.872 49.1684C123.87 49.1689 123.867 49.1693 123.865 49.1698C123.862 49.1702 123.859 49.1707 123.857 49.1711C123.854 49.1716 123.852 49.1721 123.849 49.1725C123.846 49.173 123.844 49.1734 123.841 49.1739C123.839 49.1744 123.836 49.1748 123.833 49.1753C123.831 49.1757 123.828 49.1762 123.826 49.1766C123.823 49.1771 123.82 49.1776 123.818 49.178C123.815 49.1785 123.813 49.179 123.81 49.1794C123.807 49.1799 123.805 49.1803 123.802 49.1808C123.799 49.1813 123.797 49.1817 123.794 49.1822C123.792 49.1827 123.789 49.1831 123.786 49.1836C123.784 49.1841 123.781 49.1845 123.778 49.185C123.776 49.1855 123.773 49.1859 123.77 49.1864C123.768 49.1869 123.765 49.1873 123.762 49.1878C123.76 49.1883 123.757 49.1887 123.754 49.1892C123.752 49.1897 123.749 49.1902 123.746 49.1906C123.744 49.1911 123.741 49.1916 123.738 49.192C123.736 49.1925 123.733 49.193 123.73 49.1935C123.728 49.1939 123.725 49.1944 123.722 49.1949C123.72 49.1954 123.717 49.1958 123.714 49.1963C123.711 49.1968 123.709 49.1973 123.706 49.1977C123.703 49.1982 123.701 49.1987 123.698 49.1992C123.695 49.1997 123.692 49.2001 123.69 49.2006C123.687 49.2011 123.684 49.2016 123.682 49.2021C123.679 49.2025 123.676 49.203 123.673 49.2035C123.671 49.204 123.668 49.2045 123.665 49.2049C123.662 49.2054 123.66 49.2059 123.657 49.2064C123.654 49.2069 123.651 49.2074 123.649 49.2078C123.646 49.2083 123.643 49.2088 123.64 49.2093C123.638 49.2098 123.635 49.2103 123.632 49.2108C123.629 49.2113 123.627 49.2117 123.624 49.2122C123.621 49.2127 123.618 49.2132 123.616 49.2137C123.613 49.2142 123.61 49.2147 123.607 49.2152C123.604 49.2157 123.602 49.2161 123.599 49.2166C123.596 49.2171 123.593 49.2176 123.591 49.2181C123.588 49.2186 123.585 49.2191 123.582 49.2196C123.579 49.2201 123.577 49.2206 123.574 49.2211C123.571 49.2216 123.568 49.2221 123.565 49.2226C123.562 49.2231 123.56 49.2236 123.557 49.224C123.554 49.2245 123.551 49.225 123.548 49.2255C123.546 49.226 123.543 49.2265 123.54 49.227C123.537 49.2275 123.534 49.228 123.531 49.2285C123.529 49.229 123.526 49.2295 123.523 49.23C123.52 49.2305 123.517 49.231 123.514 49.2315C123.511 49.232 123.509 49.2325 123.506 49.2331C123.503 49.2336 123.5 49.2341 123.497 49.2346C123.494 49.2351 123.491 49.2356 123.489 49.2361C123.486 49.2366 123.483 49.2371 123.48 49.2376C123.477 49.2381 123.474 49.2386 123.471 49.2391C123.468 49.2396 123.466 49.2401 123.463 49.2406C123.46 49.2412 123.457 49.2417 123.454 49.2422C123.451 49.2427 123.448 49.2432 123.445 49.2437C123.442 49.2442 123.44 49.2447 123.437 49.2452C123.434 49.2458 123.431 49.2463 123.428 49.2468C123.425 49.2473 123.422 49.2478 123.419 49.2483C123.416 49.2488 123.413 49.2494 123.41 49.2499C123.407 49.2504 123.405 49.2509 123.402 49.2514C123.399 49.2519 123.396 49.2525 123.393 49.253C123.39 49.2535 123.387 49.254 123.384 49.2545C123.381 49.255 123.378 49.2556 123.375 49.2561C123.372 49.2566 123.369 49.2571 123.366 49.2576C123.363 49.2582 123.36 49.2587 123.357 49.2592C123.354 49.2597 123.351 49.2603 123.349 49.2608C123.346 49.2613 123.343 49.2618 123.34 49.2624C123.337 49.2629 123.334 49.2634 123.331 49.2639C123.328 49.2645 123.325 49.265 123.322 49.2655C123.319 49.266 123.316 49.2666 123.313 49.2671C123.31 49.2676 123.307 49.2681 123.304 49.2687C123.301 49.2692 123.298 49.2697 123.295 49.2703C123.292 49.2708 123.289 49.2713 123.286 49.2719C123.283 49.2724 123.28 49.2729 123.277 49.2734C123.274 49.274 123.271 49.2745 123.268 49.275C123.265 49.2756 123.262 49.2761 123.259 49.2766C123.256 49.2772 123.252 49.2777 123.249 49.2783C123.246 49.2788 123.243 49.2793 123.24 49.2799C123.237 49.2804 123.234 49.2809 123.231 49.2815C123.228 49.282 123.225 49.2825 123.222 49.2831C123.219 49.2836 123.216 49.2842 123.213 49.2847C123.21 49.2852 123.207 49.2858 123.204 49.2863C123.201 49.2869 123.198 49.2874 123.194 49.288C123.191 49.2885 123.188 49.289 123.185 49.2896C123.182 49.2901 123.179 49.2907 123.176 49.2912C123.173 49.2918 123.17 49.2923 123.167 49.2928C123.164 49.2934 123.161 49.2939 123.157 49.2945C123.154 49.295 123.151 49.2956 123.148 49.2961C123.145 49.2967 123.142 49.2972 123.139 49.2978C123.136 49.2983 123.133 49.2989 123.129 49.2994C123.126 49.3 123.123 49.3005 123.12 49.3011C123.117 49.3016 123.114 49.3022 123.111 49.3027C123.108 49.3033 123.104 49.3038 123.101 49.3044C123.098 49.3049 123.095 49.3055 123.092 49.306C123.089 49.3066 123.086 49.3071 123.082 49.3077C123.079 49.3083 123.076 49.3088 123.073 49.3094C123.07 49.3099 123.067 49.3105 123.063 49.311C123.06 49.3116 123.057 49.3122 123.054 49.3127C123.051 49.3133 123.048 49.3138 123.044 49.3144C123.041 49.315 123.038 49.3155 123.035 49.3161C123.032 49.3166 123.029 49.3172 123.025 49.3178C123.022 49.3183 123.019 49.3189 123.016 49.3194C123.013 49.32 123.009 49.3206 123.006 49.3211L123.354 51.2908C123.357 51.2902 123.36 51.2896 123.363 51.2891C123.366 51.2885 123.369 51.2879 123.373 51.2874C123.376 51.2868 123.379 51.2863 123.382 51.2857C123.385 51.2851 123.389 51.2846 123.392 51.284C123.395 51.2835 123.398 51.2829 123.401 51.2823C123.404 51.2818 123.408 51.2812 123.411 51.2807C123.414 51.2801 123.417 51.2795 123.42 51.279C123.423 51.2784 123.427 51.2779 123.43 51.2773C123.433 51.2768 123.436 51.2762 123.439 51.2757C123.442 51.2751 123.445 51.2745 123.449 51.274C123.452 51.2734 123.455 51.2729 123.458 51.2723C123.461 51.2718 123.464 51.2712 123.467 51.2707C123.47 51.2701 123.474 51.2696 123.477 51.269C123.48 51.2685 123.483 51.2679 123.486 51.2674C123.489 51.2668 123.492 51.2663 123.495 51.2657C123.499 51.2652 123.502 51.2646 123.505 51.2641C123.508 51.2635 123.511 51.263 123.514 51.2625C123.517 51.2619 123.52 51.2614 123.523 51.2608C123.526 51.2603 123.529 51.2597 123.533 51.2592C123.536 51.2587 123.539 51.2581 123.542 51.2576C123.545 51.257 123.548 51.2565 123.551 51.2559C123.554 51.2554 123.557 51.2549 123.56 51.2543C123.563 51.2538 123.566 51.2532 123.569 51.2527C123.572 51.2522 123.575 51.2516 123.578 51.2511C123.582 51.2505 123.585 51.25 123.588 51.2495C123.591 51.2489 123.594 51.2484 123.597 51.2479C123.6 51.2473 123.603 51.2468 123.606 51.2463C123.609 51.2457 123.612 51.2452 123.615 51.2447C123.618 51.2441 123.621 51.2436 123.624 51.2431C123.627 51.2425 123.63 51.242 123.633 51.2415C123.636 51.2409 123.639 51.2404 123.642 51.2399C123.645 51.2393 123.648 51.2388 123.651 51.2383C123.654 51.2378 123.657 51.2372 123.66 51.2367C123.663 51.2362 123.666 51.2356 123.669 51.2351C123.672 51.2346 123.675 51.2341 123.678 51.2335C123.681 51.233 123.684 51.2325 123.687 51.232C123.69 51.2314 123.693 51.2309 123.696 51.2304C123.699 51.2299 123.702 51.2293 123.705 51.2288C123.708 51.2283 123.711 51.2278 123.714 51.2273C123.717 51.2267 123.72 51.2262 123.722 51.2257C123.725 51.2252 123.728 51.2247 123.731 51.2241C123.734 51.2236 123.737 51.2231 123.74 51.2226C123.743 51.2221 123.746 51.2216 123.749 51.221C123.752 51.2205 123.755 51.22 123.758 51.2195C123.761 51.219 123.764 51.2185 123.766 51.2179C123.769 51.2174 123.772 51.2169 123.775 51.2164C123.778 51.2159 123.781 51.2154 123.784 51.2149C123.787 51.2143 123.79 51.2138 123.793 51.2133C123.796 51.2128 123.798 51.2123 123.801 51.2118C123.804 51.2113 123.807 51.2108 123.81 51.2103C123.813 51.2098 123.816 51.2092 123.819 51.2087C123.822 51.2082 123.824 51.2077 123.827 51.2072C123.83 51.2067 123.833 51.2062 123.836 51.2057C123.839 51.2052 123.842 51.2047 123.845 51.2042C123.847 51.2037 123.85 51.2032 123.853 51.2027C123.856 51.2022 123.859 51.2017 123.862 51.2012C123.864 51.2007 123.867 51.2002 123.87 51.1997C123.873 51.1992 123.876 51.1987 123.879 51.1982C123.882 51.1977 123.884 51.1972 123.887 51.1967C123.89 51.1962 123.893 51.1957 123.896 51.1952C123.899 51.1947 123.901 51.1942 123.904 51.1937C123.907 51.1932 123.91 51.1927 123.913 51.1922C123.915 51.1917 123.918 51.1912 123.921 51.1907C123.924 51.1902 123.927 51.1897 123.929 51.1892C123.932 51.1887 123.935 51.1882 123.938 51.1877C123.941 51.1872 123.943 51.1867 123.946 51.1863C123.949 51.1858 123.952 51.1853 123.955 51.1848C123.957 51.1843 123.96 51.1838 123.963 51.1833C123.966 51.1828 123.968 51.1823 123.971 51.1818C123.974 51.1814 123.977 51.1809 123.979 51.1804C123.982 51.1799 123.985 51.1794 123.988 51.1789C123.991 51.1784 123.993 51.178 123.996 51.1775C123.999 51.177 124.002 51.1765 124.004 51.176C124.007 51.1755 124.01 51.175 124.012 51.1746C124.015 51.1741 124.018 51.1736 124.021 51.1731C124.023 51.1726 124.026 51.1722 124.029 51.1717C124.032 51.1712 124.034 51.1707 124.037 51.1702C124.04 51.1698 124.042 51.1693 124.045 51.1688C124.048 51.1683 124.051 51.1678 124.053 51.1674C124.056 51.1669 124.059 51.1664 124.061 51.1659C124.064 51.1655 124.067 51.165 124.069 51.1645C124.072 51.164 124.075 51.1636 124.078 51.1631C124.08 51.1626 124.083 51.1621 124.086 51.1617C124.088 51.1612 124.091 51.1607 124.094 51.1602C124.096 51.1598 124.099 51.1593 124.102 51.1588C124.104 51.1584 124.107 51.1579 124.11 51.1574C124.112 51.157 124.115 51.1565 124.118 51.156C124.12 51.1555 124.123 51.1551 124.126 51.1546C124.128 51.1541 124.131 51.1537 124.134 51.1532C124.136 51.1527 124.139 51.1523 124.141 51.1518C124.144 51.1514 124.147 51.1509 124.149 51.1504C124.152 51.15 124.155 51.1495 124.157 51.149C124.16 51.1486 124.162 51.1481 124.165 51.1476C124.168 51.1472 124.17 51.1467 124.173 51.1463C124.176 51.1458 124.178 51.1453 124.181 51.1449C124.183 51.1444 124.186 51.144 124.189 51.1435C124.191 51.1431 124.194 51.1426 124.196 51.1421C124.199 51.1417 124.202 51.1412 124.204 51.1408C124.207 51.1403 124.209 51.1399 124.212 51.1394C124.214 51.1389 124.217 51.1385 124.22 51.138C124.222 51.1376 124.225 51.1371 124.227 51.1367C124.23 51.1362 124.232 51.1358 124.235 51.1353C124.238 51.1349 124.24 51.1344 124.243 51.134C124.245 51.1335 124.248 51.1331 124.25 51.1326C124.253 51.1322 124.255 51.1317 124.258 51.1313C124.261 51.1308 124.263 51.1304 124.266 51.1299C124.268 51.1295 124.271 51.129 124.273 51.1286C124.276 51.1281 124.278 51.1277 124.281 51.1272C124.283 51.1268 124.286 51.1264 124.288 51.1259C124.291 51.1255 124.293 51.125 124.296 51.1246C124.298 51.1241 124.301 51.1237 124.303 51.1233C124.306 51.1228 124.308 51.1224 124.311 51.1219C124.313 51.1215 124.316 51.121 124.318 51.1206C124.321 51.1202 124.323 51.1197 124.326 51.1193C124.328 51.1189 124.331 51.1184 124.333 51.118C124.336 51.1175 124.338 51.1171 124.341 51.1167C124.343 51.1162 124.346 51.1158 124.348 51.1154C124.351 51.1149 124.353 51.1145 124.356 51.1141C124.358 51.1136 124.361 51.1132 124.363 51.1128C124.365 51.1123 124.368 51.1119 124.37 51.1115C124.373 51.111 124.375 51.1106 124.378 51.1102C124.38 51.1097 124.383 51.1093 124.385 51.1089C124.387 51.1084 124.39 51.108 124.392 51.1076C124.395 51.1072 124.397 51.1067 124.4 51.1063C124.402 51.1059 124.404 51.1054 124.407 51.105C124.409 51.1046 124.412 51.1042 124.414 51.1037C124.417 51.1033 124.419 51.1029 124.421 51.1025C124.424 51.102 124.426 51.1016 124.429 51.1012C124.431 51.1008 124.433 51.1004 124.436 51.0999C124.438 51.0995 124.441 51.0991 124.443 51.0987C124.445 51.0982 124.448 51.0978 124.45 51.0974C124.452 51.097 124.455 51.0966 124.457 51.0961C124.46 51.0957 124.462 51.0953 124.464 51.0949C124.467 51.0945 124.469 51.0941 124.471 51.0936C124.474 51.0932 124.476 51.0928 124.478 51.0924C124.481 51.092 124.483 51.0916 124.486 51.0911C124.488 51.0907 124.49 51.0903 124.493 51.0899C124.495 51.0895 124.497 51.0891 124.5 51.0887C124.502 51.0883 124.504 51.0878 124.507 51.0874C124.509 51.087 124.511 51.0866 124.514 51.0862C124.516 51.0858 124.518 51.0854 124.521 51.085C124.523 51.0846 124.525 51.0842 124.528 51.0837C124.53 51.0833 124.532 51.0829 124.534 51.0825C124.537 51.0821 124.539 51.0817 124.541 51.0813C124.544 51.0809 124.546 51.0805 124.548 51.0801C124.551 51.0797 124.553 51.0793 124.555 51.0789C124.557 51.0785 124.56 51.0781 124.562 51.0777C124.564 51.0773 124.566 51.0769 124.569 51.0765C124.571 51.0761 124.573 51.0757 124.576 51.0753C124.578 51.0749 124.58 51.0745 124.582 51.0741C124.585 51.0737 124.587 51.0733 124.589 51.0729C124.591 51.0725 124.594 51.0721 124.596 51.0717C124.598 51.0713 124.6 51.0709 124.603 51.0705C124.605 51.0701 124.607 51.0697 124.609 51.0693C124.612 51.0689 124.614 51.0685 124.616 51.0681C124.618 51.0677 124.621 51.0673 124.623 51.067C124.625 51.0666 124.627 51.0662 124.629 51.0658C124.632 51.0654 124.634 51.065 124.636 51.0646C124.638 51.0642 124.641 51.0638 124.643 51.0634C124.645 51.063 124.647 51.0627 124.649 51.0623C124.652 51.0619 124.654 51.0615 124.656 51.0611C124.658 51.0607 124.66 51.0603 124.662 51.06C124.665 51.0596 124.667 51.0592 124.669 51.0588C124.671 51.0584 124.673 51.058 124.676 51.0576C124.678 51.0573 124.68 51.0569 124.682 51.0565C124.684 51.0561 124.686 51.0557 124.689 51.0553C124.691 51.055 124.693 51.0546 124.695 51.0542C124.697 51.0538 124.699 51.0534 124.702 51.0531C124.704 51.0527 124.706 51.0523 124.708 51.0519C124.71 51.0516 124.712 51.0512 124.714 51.0508C124.717 51.0504 124.719 51.05 124.721 51.0497C124.723 51.0493 124.725 51.0489 124.727 51.0485C124.729 51.0482 124.731 51.0478 124.734 51.0474C124.736 51.047 124.738 51.0467 124.74 51.0463C124.742 51.0459 124.744 51.0456 124.746 51.0452C124.748 51.0448 124.75 51.0444 124.753 51.0441C124.755 51.0437 124.757 51.0433 124.759 51.043C124.761 51.0426 124.763 51.0422 124.765 51.0419C124.767 51.0415 124.769 51.0411 124.771 51.0408C124.773 51.0404 124.775 51.04 124.778 51.0397C124.78 51.0393 124.782 51.0389 124.784 51.0386C124.786 51.0382 124.788 51.0378 124.79 51.0375C124.792 51.0371 124.794 51.0367 124.796 51.0364C124.798 51.036 124.8 51.0357 124.802 51.0353C124.804 51.0349 124.806 51.0346 124.808 51.0342C124.81 51.0339 124.813 51.0335 124.815 51.0331C124.817 51.0328 124.819 51.0324 124.821 51.0321C124.823 51.0317 124.825 51.0313 124.827 51.031C124.829 51.0306 124.831 51.0303 124.833 51.0299C124.835 51.0296 124.837 51.0292 124.839 51.0289C124.841 51.0285 124.843 51.0281 124.845 51.0278C124.847 51.0274 124.849 51.0271 124.851 51.0267C124.853 51.0264 124.855 51.026 124.857 51.0257C124.859 51.0253 124.861 51.025 124.863 51.0246C124.865 51.0243 124.867 51.0239 124.869 51.0236C124.871 51.0232 124.873 51.0229 124.875 51.0225C124.877 51.0222 124.879 51.0218 124.881 51.0215C124.883 51.0211 124.885 51.0208 124.887 51.0204C124.888 51.0201 124.89 51.0197 124.892 51.0194C124.894 51.0191 124.896 51.0187 124.898 51.0184C124.9 51.018 124.902 51.0177 124.904 51.0173C124.906 51.017 124.908 51.0167 124.91 51.0163C124.912 51.016 124.914 51.0156 124.916 51.0153C124.918 51.015 124.92 51.0146 124.922 51.0143C124.923 51.0139 124.925 51.0136 124.927 51.0133C124.929 51.0129 124.931 51.0126 124.933 51.0122C124.935 51.0119 124.937 51.0116 124.939 51.0112C124.941 51.0109 124.943 51.0106 124.944 51.0102C124.946 51.0099 124.948 51.0096 124.95 51.0092C124.952 51.0089 124.954 51.0086 124.956 51.0082C124.958 51.0079 124.96 51.0076 124.961 51.0072C124.963 51.0069 124.965 51.0066 124.967 51.0062C124.969 51.0059 124.971 51.0056 124.973 51.0052C124.975 51.0049 124.976 51.0046 124.978 51.0043C124.98 51.0039 124.982 51.0036 124.984 51.0033C124.986 51.0029 124.988 51.0026 124.989 51.0023C124.991 51.002 124.993 51.0016 124.995 51.0013C124.997 51.001 124.999 51.0007 125.001 51.0003C125.002 51 125.004 50.9997 125.006 50.9994C125.008 50.9991 125.01 50.9987 125.012 50.9984C125.013 50.9981 125.015 50.9978 125.017 50.9974C125.019 50.9971 125.021 50.9968 125.022 50.9965C125.024 50.9962 125.026 50.9958 125.028 50.9955C125.03 50.9952 125.031 50.9949 125.033 50.9946C125.035 50.9943 125.037 50.9939 125.039 50.9936C125.04 50.9933 125.042 50.993 125.044 50.9927C125.046 50.9924 125.048 50.992 125.049 50.9917C125.051 50.9914 125.053 50.9911 125.055 50.9908C125.056 50.9905 125.058 50.9902 125.06 50.9899C125.062 50.9895 125.064 50.9892 125.065 50.9889C125.067 50.9886 125.069 50.9883 125.071 50.988C125.072 50.9877 125.074 50.9874 125.076 50.9871C125.078 50.9868 125.079 50.9864 125.081 50.9861C125.083 50.9858 125.085 50.9855 125.086 50.9852C125.088 50.9849 125.09 50.9846 125.092 50.9843C125.093 50.984 125.095 50.9837 125.097 50.9834C125.098 50.9831 125.1 50.9828 125.102 50.9825C125.104 50.9822 125.105 50.9819 125.107 50.9816C125.109 50.9813 125.11 50.981 125.112 50.9807C125.114 50.9804 125.116 50.9801 125.117 50.9798C125.119 50.9795 125.121 50.9792 125.122 50.9789C125.124 50.9786 125.126 50.9783 125.127 50.978C125.129 50.9777 125.131 50.9774 125.132 50.9771C125.134 50.9768 125.136 50.9765 125.137 50.9762C125.139 50.9759 125.141 50.9756 125.142 50.9753C125.144 50.975 125.146 50.9747 125.148 50.9744C125.149 50.9741 125.151 50.9738 125.152 50.9735C125.154 50.9733 125.156 50.973 125.157 50.9727C125.159 50.9724 125.161 50.9721 125.162 50.9718C125.164 50.9715 125.166 50.9712 125.167 50.9709C125.169 50.9706 125.171 50.9704 125.172 50.9701C125.174 50.9698 125.175 50.9695 125.177 50.9692C125.179 50.9689 125.18 50.9686 125.182 50.9684C125.184 50.9681 125.185 50.9678 125.187 50.9675C125.188 50.9672 125.19 50.9669 125.192 50.9666C125.193 50.9664 125.195 50.9661 125.196 50.9658C125.198 50.9655 125.2 50.9652 125.201 50.965C125.203 50.9647 125.204 50.9644 125.206 50.9641C125.208 50.9638 125.209 50.9636 125.211 50.9633C125.212 50.963 125.214 50.9627 125.215 50.9624C125.217 50.9622 125.219 50.9619 125.22 50.9616C125.222 50.9613 125.223 50.9611 125.225 50.9608C125.226 50.9605 125.228 50.9602 125.23 50.96C125.231 50.9597 125.233 50.9594 125.234 50.9591C125.236 50.9589 125.237 50.9586 125.239 50.9583C125.24 50.958 125.242 50.9578 125.243 50.9575C125.245 50.9572 125.247 50.957 125.248 50.9567C125.25 50.9564 125.251 50.9562 125.253 50.9559C125.254 50.9556 125.256 50.9553 125.257 50.9551C125.259 50.9548 125.26 50.9545 125.262 50.9543C125.263 50.954 125.265 50.9537 125.266 50.9535C125.268 50.9532 125.269 50.9529 125.271 50.9527C125.272 50.9524 125.274 50.9522 125.275 50.9519C125.277 50.9516 125.278 50.9514 125.28 50.9511C125.281 50.9508 125.283 50.9506 125.284 50.9503C125.286 50.9501 125.287 50.9498 125.289 50.9495C125.29 50.9493 125.292 50.949 125.293 50.9488C125.295 50.9485 125.296 50.9482 125.297 50.948C125.299 50.9477 125.3 50.9475 125.302 50.9472C125.303 50.947 125.305 50.9467 125.306 50.9464C125.308 50.9462 125.309 50.9459 125.311 50.9457C125.312 50.9454 125.313 50.9452 125.315 50.9449C125.316 50.9447 125.318 50.9444 125.319 50.9442C125.321 50.9439 125.322 50.9437 125.323 50.9434C125.325 50.9432 125.326 50.9429 125.328 50.9426C125.329 50.9424 125.331 50.9421 125.332 50.9419C125.333 50.9417 125.335 50.9414 125.336 50.9412C125.338 50.9409 125.339 50.9407 125.34 50.9404C125.342 50.9402 125.343 50.9399 125.345 50.9397C125.346 50.9394 125.347 50.9392 125.349 50.9389C125.35 50.9387 125.352 50.9384 125.353 50.9382C125.354 50.938 125.356 50.9377 125.357 50.9375C125.358 50.9372 125.36 50.937 125.361 50.9368C125.363 50.9365 125.364 50.9363 125.365 50.936C125.367 50.9358 125.368 50.9355 125.369 50.9353C125.371 50.9351 125.372 50.9348 125.373 50.9346C125.375 50.9344 125.376 50.9341 125.377 50.9339C125.379 50.9336 125.38 50.9334 125.381 50.9332C125.383 50.9329 125.384 50.9327 125.385 50.9325C125.387 50.9322 125.388 50.932 125.389 50.9318C125.391 50.9315 125.392 50.9313 125.393 50.9311C125.395 50.9308 125.396 50.9306 125.397 50.9304C125.399 50.9301 125.4 50.9299 125.401 50.9297C125.403 50.9294 125.404 50.9292 125.405 50.929C125.406 50.9288 125.408 50.9285 125.409 50.9283C125.41 50.9281 125.412 50.9278 125.413 50.9276C125.414 50.9274 125.416 50.9272 125.417 50.9269C125.418 50.9267 125.419 50.9265 125.421 50.9263C125.422 50.926 125.423 50.9258 125.424 50.9256C125.426 50.9254 125.427 50.9251 125.428 50.9249C125.43 50.9247 125.431 50.9245 125.432 50.9243C125.433 50.924 125.435 50.9238 125.436 50.9236C125.437 50.9234 125.438 50.9232 125.44 50.9229C125.441 50.9227 125.442 50.9225 125.443 50.9223C125.444 50.9221 125.446 50.9218 125.447 50.9216C125.448 50.9214 125.449 50.9212 125.451 50.921C125.452 50.9208 125.453 50.9205 125.454 50.9203C125.456 50.9201 125.457 50.9199 125.458 50.9197C125.459 50.9195 125.46 50.9193 125.462 50.919C125.463 50.9188 125.464 50.9186 125.465 50.9184C125.466 50.9182 125.468 50.918 125.469 50.9178C125.47 50.9176 125.471 50.9174 125.472 50.9171C125.474 50.9169 125.475 50.9167 125.476 50.9165C125.477 50.9163 125.478 50.9161 125.479 50.9159C125.481 50.9157 125.482 50.9155 125.483 50.9153C125.484 50.9151 125.485 50.9149 125.486 50.9147C125.488 50.9145 125.489 50.9143 125.49 50.914C125.491 50.9138 125.492 50.9136 125.493 50.9134C125.495 50.9132 125.496 50.913 125.497 50.9128C125.498 50.9126 125.499 50.9124 125.5 50.9122C125.501 50.912 125.503 50.9118 125.504 50.9116C125.505 50.9114 125.506 50.9112 125.507 50.911C125.508 50.9108 125.509 50.9106 125.51 50.9104C125.512 50.9102 125.513 50.91 125.514 50.9098C125.515 50.9097 125.516 50.9095 125.517 50.9093C125.518 50.9091 125.519 50.9089 125.52 50.9087C125.521 50.9085 125.523 50.9083 125.524 50.9081C125.525 50.9079 125.526 50.9077 125.527 50.9075C125.528 50.9073 125.529 50.9071 125.53 50.9069C125.531 50.9068 125.532 50.9066 125.533 50.9064C125.535 50.9062 125.536 50.906 125.537 50.9058C125.538 50.9056 125.539 50.9054 125.54 50.9052C125.541 50.9051 125.542 50.9049 125.543 50.9047C125.544 50.9045 125.545 50.9043 125.546 50.9041C125.547 50.9039 125.548 50.9038 125.549 50.9036C125.55 50.9034 125.551 50.9032 125.552 50.903C125.553 50.9028 125.555 50.9027 125.556 50.9025C125.557 50.9023 125.558 50.9021 125.559 50.9019C125.56 50.9018 125.561 50.9016 125.562 50.9014C125.563 50.9012 125.564 50.901 125.565 50.9009C125.566 50.9007 125.567 50.9005 125.568 50.9003C125.569 50.9001 125.57 50.9 125.571 50.8998C125.572 50.8996 125.573 50.8994 125.574 50.8993C125.575 50.8991 125.576 50.8989 125.577 50.8987C125.578 50.8986 125.579 50.8984 125.58 50.8982C125.581 50.898 125.582 50.8979 125.583 50.8977C125.584 50.8975 125.585 50.8974 125.586 50.8972C125.586 50.897 125.587 50.8969 125.588 50.8967C125.589 50.8965 125.59 50.8963 125.591 50.8962C125.592 50.896 125.593 50.8958 125.594 50.8957C125.595 50.8955 125.596 50.8953 125.597 50.8952C125.598 50.895 125.599 50.8948 125.6 50.8947C125.601 50.8945 125.602 50.8943 125.603 50.8942C125.604 50.894 125.604 50.8938 125.605 50.8937C125.606 50.8935 125.607 50.8934 125.608 50.8932C125.609 50.893 125.61 50.8929 125.611 50.8927C125.612 50.8926 125.613 50.8924 125.614 50.8922C125.615 50.8921 125.615 50.8919 125.616 50.8918C125.617 50.8916 125.618 50.8914 125.619 50.8913C125.62 50.8911 125.621 50.891 125.622 50.8908C125.623 50.8907 125.623 50.8905 125.624 50.8903C125.625 50.8902 125.626 50.89 125.627 50.8899C125.628 50.8897 125.629 50.8896 125.63 50.8894C125.63 50.8893 125.631 50.8891 125.632 50.889C125.633 50.8888 125.634 50.8887 125.635 50.8885C125.636 50.8884 125.637 50.8882 125.637 50.8881C125.638 50.8879 125.639 50.8878 125.64 50.8876C125.641 50.8875 125.642 50.8873 125.642 50.8872C125.643 50.887 125.644 50.8869 125.645 50.8867C125.646 50.8866 125.647 50.8864 125.647 50.8863C125.648 50.8861 125.649 50.886 125.65 50.8858C125.651 50.8857 125.652 50.8856 125.652 50.8854C125.653 50.8853 125.654 50.8851 125.655 50.885C125.656 50.8848 125.656 50.8847 125.657 50.8846C125.658 50.8844 125.659 50.8843 125.66 50.8841C125.66 50.884 125.661 50.8839 125.662 50.8837C125.663 50.8836 125.663 50.8834 125.664 50.8833C125.665 50.8832 125.666 50.883 125.667 50.8829C125.667 50.8828 125.668 50.8826 125.669 50.8825C125.67 50.8824 125.67 50.8822 125.671 50.8821C125.672 50.8819 125.673 50.8818 125.673 50.8817C125.674 50.8815 125.675 50.8814 125.676 50.8813C125.676 50.8812 125.677 50.881 125.678 50.8809C125.679 50.8808 125.679 50.8806 125.68 50.8805C125.681 50.8804 125.682 50.8802 125.682 50.8801C125.683 50.88 125.684 50.8798 125.685 50.8797C125.685 50.8796 125.686 50.8795 125.687 50.8793C125.687 50.8792 125.688 50.8791 125.689 50.879C125.69 50.8788 125.69 50.8787 125.691 50.8786C125.692 50.8785 125.692 50.8783 125.693 50.8782C125.694 50.8781 125.695 50.878 125.695 50.8778C125.696 50.8777 125.697 50.8776 125.697 50.8775C125.698 50.8774 125.699 50.8772 125.699 50.8771C125.7 50.877 125.701 50.8769 125.701 50.8768C125.702 50.8766 125.703 50.8765 125.703 50.8764C125.704 50.8763 125.705 50.8762 125.705 50.8761C125.706 50.8759 125.707 50.8758 125.707 50.8757C125.708 50.8756 125.709 50.8755 125.709 50.8754C125.71 50.8752 125.711 50.8751 125.711 50.875C125.712 50.8749 125.713 50.8748 125.713 50.8747C125.714 50.8746 125.714 50.8745 125.715 50.8743C125.716 50.8742 125.716 50.8741 125.717 50.874C125.718 50.8739 125.718 50.8738 125.719 50.8737C125.719 50.8736 125.72 50.8735 125.721 50.8734C125.721 50.8732 125.722 50.8731 125.723 50.873C125.723 50.8729 125.724 50.8728 125.724 50.8727C125.725 50.8726 125.726 50.8725 125.726 50.8724C125.727 50.8723 125.727 50.8722 125.728 50.8721C125.728 50.872 125.729 50.8719 125.73 50.8718C125.73 50.8717 125.731 50.8716 125.731 50.8715C125.732 50.8714 125.733 50.8713 125.733 50.8712C125.734 50.8711 125.734 50.871 125.735 50.8709C125.735 50.8708 125.736 50.8707 125.736 50.8706C125.737 50.8705 125.738 50.8704 125.738 50.8703C125.739 50.8702 125.739 50.8701 125.74 50.87C125.74 50.8699 125.741 50.8698 125.741 50.8697C125.742 50.8696 125.742 50.8695 125.743 50.8694C125.744 50.8693 125.744 50.8692 125.745 50.8691C125.745 50.869 125.746 50.869 125.746 50.8689C125.747 50.8688 125.747 50.8687 125.748 50.8686C125.748 50.8685 125.749 50.8684 125.749 50.8683C125.75 50.8682 125.75 50.8681 125.751 50.8681C125.751 50.868 125.752 50.8679 125.752 50.8678C125.753 50.8677 125.753 50.8676 125.754 50.8675C125.754 50.8675 125.755 50.8674 125.755 50.8673C125.756 50.8672 125.756 50.8671 125.757 50.867C125.757 50.8669 125.758 50.8669 125.758 50.8668C125.758 50.8667 125.759 50.8666 125.759 50.8665C125.76 50.8665 125.76 50.8664 125.761 50.8663C125.761 50.8662 125.762 50.8661 125.762 50.8661C125.763 50.866 125.763 50.8659 125.763 50.8658C125.764 50.8657 125.764 50.8657 125.765 50.8656C125.765 50.8655 125.766 50.8654 125.766 50.8654C125.767 50.8653 125.767 50.8652 125.767 50.8651C125.768 50.865 125.768 50.865 125.769 50.8649C125.769 50.8648 125.769 50.8648 125.77 50.8647C125.77 50.8646 125.771 50.8645 125.771 50.8645C125.772 50.8644 125.772 50.8643 125.772 50.8643C125.773 50.8642 125.773 50.8641 125.774 50.864C125.774 50.864 125.774 50.8639 125.775 50.8638C125.775 50.8638 125.775 50.8637 125.776 50.8636C125.776 50.8636 125.777 50.8635 125.777 50.8634C125.777 50.8634 125.778 50.8633 125.778 50.8632C125.778 50.8632 125.779 50.8631 125.779 50.863C125.78 50.863 125.78 50.8629 125.78 50.8629C125.781 50.8628 125.781 50.8627 125.781 50.8627C125.782 50.8626 125.782 50.8625 125.782 50.8625C125.783 50.8624 125.783 50.8624 125.783 50.8623C125.784 50.8622 125.784 50.8622 125.784 50.8621C125.785 50.8621 125.785 50.862 125.785 50.862C125.786 50.8619 125.786 50.8618 125.786 50.8618C125.787 50.8617 125.787 50.8617 125.787 50.8616C125.788 50.8616 125.788 50.8615 125.788 50.8615C125.789 50.8614 125.789 50.8613 125.789 50.8613C125.789 50.8612 125.79 50.8612 125.79 50.8611C125.79 50.8611 125.791 50.861 125.791 50.861C125.791 50.8609 125.791 50.8609 125.792 50.8608C125.792 50.8608 125.792 50.8607 125.793 50.8607C125.793 50.8606 125.793 50.8606 125.793 50.8605C125.794 50.8605 125.794 50.8604 125.794 50.8604C125.794 50.8604 125.795 50.8603 125.795 50.8603C125.795 50.8602 125.795 50.8602 125.796 50.8601C125.796 50.8601 125.796 50.86 125.796 50.86C125.797 50.86 125.797 50.8599 125.797 50.8599C125.797 50.8598 125.798 50.8598 125.798 50.8597C125.798 50.8597 125.798 50.8597 125.799 50.8596C125.799 50.8596 125.799 50.8595 125.799 50.8595C125.799 50.8595 125.8 50.8594 125.8 50.8594C125.8 50.8594 125.8 50.8593 125.801 50.8593C125.801 50.8592 125.801 50.8592 125.801 50.8592C125.801 50.8591 125.802 50.8591 125.802 50.8591C125.802 50.859 125.802 50.859 125.802 50.859C125.802 50.8589 125.803 50.8589 125.803 50.8589C125.803 50.8588 125.803 50.8588 125.803 50.8588C125.804 50.8587 125.804 50.8587 125.804 50.8587C125.804 50.8587 125.804 50.8586 125.804 50.8586C125.805 50.8586 125.805 50.8585 125.805 50.8585C125.805 50.8585 125.805 50.8585 125.805 50.8584C125.805 50.8584 125.806 50.8584 125.806 50.8584C125.806 50.8583 125.806 50.8583 125.806 50.8583C125.806 50.8583 125.806 50.8582 125.807 50.8582C125.807 50.8582 125.807 50.8582 125.807 50.8581C125.807 50.8581 125.807 50.8581 125.807 50.8581C125.807 50.8581 125.808 50.858 125.808 50.858C125.808 50.858 125.808 50.858 125.808 50.858C125.808 50.8579 125.808 50.8579 125.808 50.8579C125.808 50.8579 125.809 50.8579 125.809 50.8579C125.809 50.8578 125.809 50.8578 125.809 50.8578C125.809 50.8578 125.809 50.8578 125.809 50.8578C125.809 50.8577 125.809 50.8577 125.809 50.8577C125.809 50.8577 125.81 50.8577 125.81 50.8577C125.81 50.8577 125.81 50.8577 125.81 50.8576C125.81 50.8576 125.81 50.8576 125.81 50.8576C125.81 50.8576 125.81 50.8576 125.81 50.8576C125.81 50.8576 125.81 50.8576 125.81 50.8576C125.81 50.8576 125.81 50.8575 125.81 50.8575C125.81 50.8575 125.81 50.8575 125.81 50.8575C125.811 50.8575 125.811 50.8575 125.811 50.8575C125.811 50.8575 125.811 50.8575 125.811 50.8575C125.811 50.8575 125.811 50.8575 125.811 50.8575L125.811 50.8575C125.811 50.8575 125.811 50.8575 125.637 49.8727ZM150.643 56.4655L150.052 57.2717L150.057 57.2755L150.643 56.4655ZM146.258 27.4602L147.045 28.0773L147.045 28.0772L146.258 27.4602ZM170.779 21.8524L170.325 22.7439L170.33 22.746L170.779 21.8524ZM175.663 37.5464L174.84 36.9782L174.84 36.9782L175.663 37.5464ZM163.513 40.4869L163.024 41.3591L163.031 41.3631L163.039 41.367L163.513 40.4869ZM160.057 36.2374L161.008 35.9293L160.74 35.1015L159.883 35.2526L160.057 36.2374ZM161.985 41.6589L162.499 40.8011L162.489 40.7952L161.985 41.6589ZM175.932 39.859L176.663 39.177L175.979 38.4431L175.247 39.13L175.932 39.859ZM176.322 53.8813L177.083 54.5302L177.083 54.5294L176.322 53.8813ZM165.388 58.4033C159.772 59.3935 155.085 58.4473 151.23 55.6556L150.057 57.2755C154.424 60.438 159.683 61.4401 165.736 60.3729L165.388 58.4033ZM151.235 55.6593C147.392 52.8392 144.92 48.5605 143.886 42.6983L141.917 43.0456C143.02 49.3011 145.709 54.0847 150.052 57.2717L151.235 55.6593ZM143.886 42.6983C142.859 36.8733 143.941 32.0352 147.045 28.0773L145.471 26.8432C141.963 31.3164 140.807 36.7528 141.917 43.0456L143.886 42.6983ZM147.045 28.0772C149.821 24.5353 153.689 22.3063 158.728 21.4178L158.381 19.4482C152.917 20.4116 148.588 22.8673 145.471 26.8433L147.045 28.0772ZM158.728 21.4178C163.229 20.6242 167.075 21.0924 170.325 22.7439L171.232 20.9609C167.518 19.0739 163.215 18.5958 158.381 19.4482L158.728 21.4178ZM170.33 22.746C173.515 24.346 175.412 26.9211 176.055 30.5705L178.025 30.2232C177.275 25.9737 174.998 22.8524 171.227 20.9588L170.33 22.746ZM176.055 30.5705C176.499 33.0853 176.072 35.1942 174.84 36.9782L176.486 38.1146C178.056 35.8413 178.547 33.1839 178.025 30.2232L176.055 30.5705ZM174.84 36.9782C173.633 38.7265 171.816 39.847 169.276 40.2949L169.623 42.2645C172.603 41.7391 174.928 40.3707 176.486 38.1145L174.84 36.9782ZM169.276 40.2949C167.214 40.6585 165.471 40.4065 163.988 39.6068L163.039 41.367C164.983 42.4158 167.197 42.6924 169.623 42.2645L169.276 40.2949ZM164.003 39.6148C162.532 38.7898 161.542 37.5771 161.008 35.9293L159.106 36.5455C159.791 38.6625 161.105 40.2828 163.024 41.3591L164.003 39.6148ZM159.883 35.2526C159.299 35.3555 158.702 35.565 158.274 36.0082C157.796 36.5041 157.673 37.1384 157.781 37.7493L159.751 37.402C159.739 37.3347 159.748 37.3207 159.743 37.3406C159.736 37.3664 159.721 37.3888 159.713 37.3969C159.711 37.3996 159.735 37.3729 159.822 37.3352C159.908 37.2972 160.04 37.2558 160.231 37.2222L159.883 35.2526ZM157.781 37.7493C158.135 39.757 159.449 41.3369 161.481 42.5225L162.489 40.7952C160.806 39.8129 159.974 38.6707 159.751 37.402L157.781 37.7493ZM161.471 42.5166C163.849 43.9426 166.553 44.3677 169.52 43.8446L169.172 41.8749C166.619 42.3252 164.415 41.9497 162.499 40.8012L161.471 42.5166ZM169.52 43.8446C172.44 43.3295 174.832 42.2638 176.616 40.588L175.247 39.13C173.816 40.4739 171.817 41.4087 169.172 41.8749L169.52 43.8446ZM175.2 40.541C176.471 41.9037 177.332 43.7142 177.74 46.0304L179.71 45.6831C179.247 43.0625 178.246 40.8744 176.663 39.177L175.2 40.541ZM177.74 46.0304C178.188 48.573 177.501 50.9532 175.56 53.2331L177.083 54.5294C179.36 51.8547 180.274 48.8852 179.71 45.6831L177.74 46.0304ZM175.561 53.2323C173.336 55.841 169.986 57.5926 165.388 58.4033L165.736 60.3729C170.653 59.5059 174.476 57.5862 177.083 54.5302L175.561 53.2323ZM197.648 39.6046L198.611 39.3354L198.241 38.0096L197.094 38.772L197.648 39.6046ZM196.157 40.5964L195.603 39.7638L195.059 40.126L195.172 40.7701L196.157 40.5964ZM197.881 45.2555L198.772 44.8017L198.765 44.7869L198.757 44.7725L197.881 45.2555ZM200.694 49.202L201.522 49.7633L201.984 49.0811L201.403 48.4967L200.694 49.202ZM185.838 53.5222L186.27 52.6204L186.259 52.6152L185.838 53.5222ZM175.073 9.39895L174.427 8.63579L173.988 9.00695L174.088 9.5726L175.073 9.39895ZM178.671 7.16802L178.251 6.26042L178.248 6.26199L178.671 7.16802ZM189.838 6.13602L190.212 5.20848L190.204 5.20528L190.196 5.20222L189.838 6.13602ZM194.192 23.3466L195.1 23.7644L195.153 23.6497L195.175 23.5255L194.192 23.3466ZM193.34 24.8156L194.171 25.3716L194.177 25.3632L194.182 25.3546L193.34 24.8156ZM192.356 26.5163L191.449 26.0938L191.442 26.1093L191.435 26.1252L192.356 26.5163ZM193.088 28.5043L192.803 29.4628L193.47 29.6612L193.888 29.1046L193.088 28.5043ZM196.251 22.4282L195.298 22.1254L195.295 22.1342L196.251 22.4282ZM197.658 14.2669L197.336 13.3199L196.714 13.5312L196.661 14.1866L197.658 14.2669ZM200.469 13.2852L200.791 14.2322L200.801 14.2289L200.81 14.2254L200.469 13.2852ZM210.813 13.6827L210.32 14.5527L210.326 14.5561L210.813 13.6827ZM213.48 27.234L214.325 27.7691L214.332 27.7573L213.48 27.234ZM207.892 32.3495L207.404 31.4764L205.514 32.5317L207.543 33.2867L207.892 32.3495ZM216.158 33.5643L216.937 32.937L216.632 32.5587L216.146 32.5644L216.158 33.5643ZM217.952 46.8878L218.782 47.4459L218.787 47.4385L217.952 46.8878ZM202.932 48.7034L202.285 49.4661L202.293 49.4726L202.932 48.7034ZM197.094 38.772L195.603 39.7638L196.711 41.429L198.202 40.4373L197.094 38.772ZM195.172 40.7701C195.46 42.4011 196.078 44.0582 197.006 45.7386L198.757 44.7725C197.915 43.2477 197.385 41.7987 197.142 40.4228L195.172 40.7701ZM196.99 45.7094C197.811 47.3213 198.808 48.724 199.985 49.9073L201.403 48.4967C200.387 47.4754 199.508 46.247 198.772 44.8017L196.99 45.7094ZM199.866 48.6407C198.235 51.0466 195.62 52.6214 191.869 53.2828L192.217 55.2524C196.365 54.5209 199.517 52.7187 201.522 49.7633L199.866 48.6407ZM191.869 53.2828C189.785 53.6503 187.931 53.4169 186.27 52.6205L185.405 54.424C187.485 55.4206 189.768 55.6841 192.217 55.2524L191.869 53.2828ZM186.259 52.6152C184.367 51.7371 183.315 50.3848 182.984 48.507L181.014 48.8543C181.467 51.4197 182.974 53.2951 185.417 54.4293L186.259 52.6152ZM182.984 48.507L176.058 9.2253L174.088 9.5726L181.014 48.8543L182.984 48.507ZM175.719 10.1621C176.603 9.41327 177.723 8.71442 179.094 8.07404L178.248 6.26199C176.754 6.95968 175.475 7.74811 174.427 8.63579L175.719 10.1621ZM179.091 8.0756C180.468 7.43817 181.887 6.99154 183.349 6.73381L183.002 4.76419C181.367 5.0525 179.782 5.55188 178.251 6.26043L179.091 8.0756ZM183.349 6.73381C185.806 6.30059 187.834 6.43899 189.48 7.06983L190.196 5.20222C188.12 4.40695 185.706 4.28734 183.002 4.76419L183.349 6.73381ZM189.464 7.06357C191.266 7.78944 192.286 9.04477 192.616 10.9216L194.586 10.5743C194.134 8.00787 192.644 6.18861 190.212 5.20848L189.464 7.06357ZM192.616 10.9216L193.246 14.4896L195.215 14.1423L194.586 10.5743L192.616 10.9216ZM193.246 14.4896C193.751 17.3553 193.739 20.2461 193.208 23.1676L195.175 23.5255C195.748 20.3753 195.762 17.2456 195.215 14.1423L193.246 14.4896ZM193.283 22.9288C193.163 23.1892 192.911 23.6298 192.498 24.2766L194.182 25.3546C194.603 24.6973 194.919 24.1586 195.1 23.7644L193.283 22.9288ZM192.509 24.2596C192.069 24.9176 191.712 25.53 191.449 26.0938L193.262 26.9388C193.469 26.4941 193.769 25.9728 194.171 25.3716L192.509 24.2596ZM191.435 26.1252C191.188 26.7074 191.034 27.3363 191.141 27.9452L193.111 27.5979C193.099 27.5336 193.098 27.3257 193.276 26.9074L191.435 26.1252ZM191.141 27.9452C191.306 28.8809 192.185 29.2789 192.803 29.4628L193.373 27.5458C193.263 27.5129 193.179 27.4809 193.117 27.4525C193.055 27.4238 193.024 27.4027 193.014 27.3948C193.004 27.3872 193.022 27.3987 193.046 27.4354C193.073 27.4751 193.099 27.5311 193.111 27.5979L191.141 27.9452ZM193.888 29.1046C195.411 27.0752 196.522 24.9475 197.207 22.7221L195.295 22.1342C194.685 24.1167 193.688 26.0397 192.288 27.9039L193.888 29.1046ZM197.204 22.7309C197.905 20.524 198.383 17.7214 198.655 14.3472L196.661 14.1866C196.396 17.4782 195.936 20.1165 195.298 22.1254L197.204 22.7309ZM197.979 15.2138C198.272 15.1146 198.605 14.9966 198.98 14.8602L198.296 12.9809C197.931 13.1137 197.611 13.2266 197.336 13.3199L197.979 15.2138ZM198.98 14.8602C199.338 14.7297 199.94 14.521 200.791 14.2322L200.148 12.3383C199.296 12.6274 198.677 12.8422 198.296 12.9809L198.98 14.8602ZM200.81 14.2254C201.684 13.9087 202.223 13.7484 202.487 13.702L202.139 11.7324C201.684 11.8126 200.995 12.031 200.129 12.3451L200.81 14.2254ZM202.487 13.702C205.8 13.1178 208.376 13.4511 210.32 14.5526L211.306 12.8127C208.828 11.4082 205.737 11.098 202.139 11.7324L202.487 13.702ZM210.326 14.5561C212.239 15.6228 213.427 17.3417 213.868 19.8423L215.838 19.495C215.305 16.4753 213.8 14.2035 211.3 12.8093L210.326 14.5561ZM213.868 19.8423C214.315 22.3739 213.896 24.6459 212.628 26.7107L214.332 27.7573C215.868 25.2553 216.365 22.4838 215.838 19.495L213.868 19.8423ZM212.635 26.699C211.433 28.5974 209.702 30.1935 207.404 31.4764L208.379 33.2226C210.927 31.8002 212.921 29.9859 214.325 27.769L212.635 26.699ZM207.543 33.2867C209.967 34.1889 212.852 34.6031 216.17 34.5643L216.146 32.5644C212.998 32.6012 210.372 32.2055 208.24 31.4122L207.543 33.2867ZM215.379 34.1917C216.874 36.0469 217.822 38.1292 218.231 40.4525L220.201 40.1052C219.732 37.4467 218.641 35.0528 216.937 32.937L215.379 34.1917ZM218.231 40.4525C218.626 42.6912 218.243 44.631 217.117 46.3372L218.787 47.4385C220.217 45.2696 220.677 42.8033 220.201 40.1052L218.231 40.4525ZM217.122 46.3298C215.877 48.1811 213.882 49.4012 210.988 49.9115L211.336 51.8812C214.635 51.2994 217.167 49.8471 218.782 47.4459L217.122 46.3298ZM210.988 49.9115C208.205 50.4023 205.758 49.7515 203.571 47.9341L202.293 49.4726C204.93 51.6634 207.97 52.4745 211.336 51.8812L210.988 49.9115ZM203.578 47.9407C201.38 46.0762 199.703 43.2416 198.611 39.3354L196.685 39.8739C197.849 44.0384 199.695 47.2696 202.285 49.466L203.578 47.9407Z" fill="#FF6B35" mask="url(#path-1-outside-1_5_201)"/>
</svg>
